<svg width="1440" height="630" viewBox="0 0 1440 630" fill="none" xmlns="http://www.w3.org/2000/svg">
<path fill-rule="evenodd" clip-rule="evenodd" d="M0.00134855 313.618C-0.998607 313.63 -1.9991 313.632 -3 313.625L-1.90724 156.813L-0.814496 0C19.9798 0.142112 40.5423 4.33891 59.6988 12.3508C78.8553 20.3627 96.2308 32.0327 110.833 46.6946C122.714 58.6239 132.57 72.3436 140.045 87.3198C166.409 47.6475 211.775 21.4602 263.317 21.4602C320.948 21.4602 370.858 54.2009 395.115 101.925C421.58 62.8562 466.59 37.142 517.664 37.142C575.454 37.142 625.48 70.0627 649.662 118H651.438C676.157 71.6619 725.31 40.0821 781.91 40.0821C832.192 40.0821 876.596 65.0045 903.214 103.056C930.033 66.6661 973.431 43.0224 1022.41 43.0224C1066.53 43.0224 1106.12 62.2119 1133.15 92.623C1160.18 59.3874 1201.61 38.122 1248.06 38.122C1284.01 38.122 1316.96 50.8665 1342.55 72.0428C1371.06 48.0904 1407.34 34.8036 1445 34.8036V191.62L1445 348.437C1444.67 348.437 1444.33 348.436 1444 348.433V630H0.00134855V313.618Z" fill="#FFCC70"/>
</svg>
