<svg width="207" height="185" viewBox="0 0 207 185" fill="none" xmlns="http://www.w3.org/2000/svg">
<path fill-rule="evenodd" clip-rule="evenodd" d="M207 89.0781C206.985 112.227 193.889 135.417 177.374 152.467C156.867 173.637 127.637 187.087 98.1813 184.211C71.5967 181.616 52.7585 160.419 35.0107 140.449C34.3993 139.761 33.7892 139.074 33.1801 138.39C16.4418 119.587 0.0239611 98.9998 3.41505e-05 73.9157C1.13822e-05 73.8918 0 73.8679 0 73.844C0 48.7658 12.5646 24.0091 33.0569 9.31918C51.4205 -3.84477 75.8668 -0.360447 98.1813 3.53438C111.853 5.92071 122.548 13.5954 133.594 21.5223C136.938 23.9221 140.315 26.345 143.816 28.6513C150.518 33.0666 158.17 36.6391 165.766 40.1859C183.147 48.3011 200.24 56.282 205.02 73.9157C206.37 78.8982 206.997 83.9472 207 88.9985C207 89.0251 207 89.0516 207 89.0781Z" fill="#D9D9D9"/>
</svg>
