<svg xmlns="http://www.w3.org/2000/svg" xmlns:xlink="http://www.w3.org/1999/xlink" width="90" zoomAndPan="magnify" viewBox="0 0 67.5 44.999999" height="60" preserveAspectRatio="xMidYMid meet" version="1.0"><defs><g/><clipPath id="fb980340e7"><path d="M 42 8 L 48.527344 8 L 48.527344 12 L 42 12 Z M 42 8 " clip-rule="nonzero"/></clipPath><clipPath id="e015a6e89c"><path d="M 16.515625 11 L 21 11 L 21 14 L 16.515625 14 Z M 16.515625 11 " clip-rule="nonzero"/></clipPath><clipPath id="963f0dc619"><path d="M 18.789062 3.9375 L 43.238281 3.9375 L 43.238281 16.59375 L 18.789062 16.59375 Z M 18.789062 3.9375 " clip-rule="nonzero"/></clipPath></defs><path stroke-linecap="butt" transform="matrix(0.744485, -0.000000000000001016, 0.000000000000001016, 0.744485, 3.933737, 15.367895)" fill="none" stroke-linejoin="miter" d="M -0.000192653 1.00121 L 15.745796 1.00121 " stroke="#c4ab62" stroke-width="2" stroke-opacity="1" stroke-miterlimit="4"/><path stroke-linecap="butt" transform="matrix(0.744485, -0.000000000000001016, 0.000000000000001016, 0.744485, 51.010791, 15.367895)" fill="none" stroke-linejoin="miter" d="M 0.0012457 1.00121 L 15.747234 1.00121 " stroke="#c4ab62" stroke-width="2" stroke-opacity="1" stroke-miterlimit="4"/><path stroke-linecap="butt" transform="matrix(0.744485, 0, 0, 0.744485, 26.041117, 39.573299)" fill="none" stroke-linejoin="miter" d="M 0.0024879 0.998149 L 19.631192 0.998149 " stroke="#c4ab62" stroke-width="2" stroke-opacity="1" stroke-miterlimit="4"/><g fill="#575756" fill-opacity="1"><g transform="translate(23.065629, 35.402074)"><g><path d="M 0.546875 -3.421875 L 0.546875 -2.875 L 4 -2.875 L 4 -3.421875 Z M 0.859375 -1.96875 L 0.859375 -1.421875 L 3.640625 -1.421875 L 3.640625 -1.96875 Z M 0.296875 -0.4375 L 0.296875 0.125 L 4.25 0.125 L 4.25 -0.4375 Z M 0.296875 -0.4375 "/></g></g></g><g fill="#575756" fill-opacity="1"><g transform="translate(28.510408, 35.402074)"><g><path d="M 1.921875 -1.765625 C 1.828125 -1.875 1.453125 -2.328125 1.296875 -2.484375 L 1.296875 -2.5 L 1.765625 -2.5 L 1.765625 -3 L 1.296875 -3 L 1.296875 -3.84375 L 0.78125 -3.84375 L 0.78125 -3 L 0.203125 -3 L 0.203125 -2.5 L 0.703125 -2.5 C 0.59375 -1.953125 0.34375 -1.328125 0.09375 -0.921875 C 0.171875 -0.78125 0.3125 -0.5625 0.375 -0.40625 C 0.515625 -0.625 0.65625 -0.9375 0.78125 -1.28125 L 0.78125 0.40625 L 1.296875 0.40625 L 1.296875 -1.828125 C 1.421875 -1.640625 1.53125 -1.453125 1.59375 -1.328125 Z M 4.421875 -1.234375 C 4.234375 -1.546875 3.828125 -2.0625 3.515625 -2.421875 L 3.234375 -2.21875 L 3.234375 -2.5625 C 3.3125 -2.734375 3.390625 -2.90625 3.453125 -3.09375 L 4.296875 -3.09375 L 4.296875 -3.609375 L 1.8125 -3.609375 L 1.8125 -3.09375 L 2.84375 -3.09375 C 2.5625 -2.34375 2.125 -1.640625 1.609375 -1.203125 C 1.734375 -1.09375 1.953125 -0.890625 2.03125 -0.765625 C 2.265625 -1 2.484375 -1.265625 2.703125 -1.578125 L 2.703125 0.390625 L 3.234375 0.390625 L 3.234375 -1.96875 C 3.515625 -1.609375 3.828125 -1.1875 3.96875 -0.890625 Z M 4.421875 -1.234375 "/></g></g></g><g fill="#575756" fill-opacity="1"><g transform="translate(33.955187, 35.402074)"><g><path d="M 0.6875 -1.59375 L 0.6875 -2.140625 L 0.90625 -2.140625 L 0.90625 -1.59375 Z M 0.90625 -3.09375 L 0.90625 -2.578125 L 0.6875 -2.578125 L 0.6875 -3.09375 Z M 1.609375 -2.578125 L 1.359375 -2.578125 L 1.359375 -3.09375 L 1.609375 -3.09375 Z M 1.359375 -1.59375 L 1.359375 -2.140625 L 1.609375 -2.140625 L 1.609375 -1.59375 Z M 1.609375 -1.140625 L 1.609375 -0.984375 L 2.03125 -0.984375 L 2.03125 -3.5625 L 0.296875 -3.5625 L 0.296875 -0.90625 L 0.6875 -0.90625 L 0.6875 -1.140625 L 0.90625 -1.140625 L 0.90625 0.390625 L 1.359375 0.390625 L 1.359375 -1.140625 Z M 1.984375 0.265625 C 2.171875 0.03125 2.296875 -0.359375 2.359375 -0.703125 L 1.953125 -0.828125 C 1.890625 -0.515625 1.765625 -0.171875 1.59375 0.046875 Z M 2.375 -0.640625 C 2.4375 -0.390625 2.484375 -0.078125 2.484375 0.125 L 2.84375 0.0625 C 2.828125 -0.140625 2.78125 -0.453125 2.71875 -0.703125 Z M 2.859375 -0.6875 C 2.9375 -0.484375 3.015625 -0.21875 3.046875 -0.03125 L 3.375 -0.140625 C 3.34375 -0.296875 3.25 -0.5625 3.15625 -0.765625 Z M 3.578125 -3.09375 L 3.578125 -2.921875 L 2.671875 -2.921875 L 2.671875 -3.09375 Z M 2.671875 -2.390625 L 2.671875 -2.578125 L 3.578125 -2.578125 L 3.578125 -2.390625 Z M 4.40625 -1.46875 L 4.40625 -1.859375 L 2.671875 -1.859375 L 2.671875 -2.03125 L 4.0625 -2.03125 L 4.0625 -3.453125 L 3.3125 -3.453125 C 3.375 -3.5625 3.421875 -3.671875 3.484375 -3.78125 L 2.875 -3.84375 C 2.859375 -3.734375 2.8125 -3.59375 2.78125 -3.453125 L 2.171875 -3.453125 L 2.171875 -0.90625 L 3.828125 -0.90625 C 3.8125 -0.734375 3.8125 -0.59375 3.796875 -0.484375 C 3.734375 -0.609375 3.640625 -0.75 3.5625 -0.875 L 3.28125 -0.75 C 3.390625 -0.609375 3.484375 -0.390625 3.53125 -0.265625 L 3.78125 -0.375 C 3.75 -0.203125 3.71875 -0.109375 3.6875 -0.0625 C 3.65625 -0.015625 3.625 -0.015625 3.546875 -0.015625 C 3.484375 -0.015625 3.359375 -0.015625 3.203125 -0.03125 C 3.265625 0.09375 3.3125 0.265625 3.3125 0.390625 C 3.515625 0.40625 3.703125 0.390625 3.8125 0.375 C 3.921875 0.359375 4.015625 0.328125 4.09375 0.234375 C 4.21875 0.09375 4.265625 -0.25 4.3125 -1.125 C 4.3125 -1.171875 4.328125 -1.296875 4.328125 -1.296875 L 2.671875 -1.296875 L 2.671875 -1.46875 Z M 4.40625 -1.46875 "/></g></g></g><g fill="#575756" fill-opacity="1"><g transform="translate(39.399967, 35.402074)"><g><path d="M 3.828125 -2.859375 L 3.828125 -2.484375 L 2.265625 -2.484375 L 2.265625 -2.859375 Z M 2.109375 -2.015625 L 3.984375 -2.015625 L 3.984375 -2.421875 L 4.34375 -2.421875 L 4.34375 -3.3125 L 3.40625 -3.3125 C 3.34375 -3.484375 3.25 -3.71875 3.140625 -3.890625 L 2.625 -3.75 C 2.703125 -3.625 2.765625 -3.46875 2.8125 -3.3125 L 1.765625 -3.3125 L 1.765625 -2.421875 L 2.109375 -2.421875 Z M 1.40625 -3.703125 L 1.328125 -3.671875 L 0.3125 -3.671875 L 0.3125 0.375 L 0.796875 0.375 L 0.796875 -3.1875 L 1.15625 -3.1875 C 1.078125 -2.890625 0.984375 -2.53125 0.90625 -2.25 C 1.15625 -1.921875 1.21875 -1.640625 1.21875 -1.421875 C 1.21875 -1.28125 1.1875 -1.1875 1.140625 -1.140625 C 1.09375 -1.125 1.0625 -1.109375 1.015625 -1.109375 C 0.96875 -1.109375 0.890625 -1.109375 0.8125 -1.109375 C 0.890625 -0.984375 0.9375 -0.78125 0.9375 -0.65625 C 1.046875 -0.640625 1.140625 -0.640625 1.234375 -0.65625 C 1.328125 -0.671875 1.421875 -0.703125 1.484375 -0.765625 C 1.625 -0.875 1.6875 -1.0625 1.6875 -1.359375 C 1.6875 -1.625 1.625 -1.953125 1.359375 -2.296875 C 1.484375 -2.65625 1.640625 -3.109375 1.75 -3.484375 Z M 3.71875 -0.125 C 3.65625 -0.125 3.65625 -0.140625 3.65625 -0.265625 L 3.65625 -1.203125 L 4.359375 -1.203125 L 4.359375 -1.6875 L 1.765625 -1.6875 L 1.765625 -1.203125 L 2.3125 -1.203125 C 2.265625 -0.625 2.09375 -0.265625 1.375 -0.046875 C 1.484375 0.0625 1.625 0.265625 1.671875 0.390625 C 2.5625 0.09375 2.765625 -0.4375 2.84375 -1.203125 L 3.140625 -1.203125 L 3.140625 -0.265625 C 3.140625 0.171875 3.234375 0.328125 3.625 0.328125 L 3.9375 0.328125 C 4.265625 0.328125 4.390625 0.15625 4.421875 -0.46875 C 4.296875 -0.5 4.09375 -0.578125 3.984375 -0.65625 C 3.984375 -0.203125 3.953125 -0.125 3.890625 -0.125 Z M 3.71875 -0.125 "/></g></g></g><g fill="#575756" fill-opacity="1"><g transform="translate(17.24658, 27.498123)"><g><path d="M 5.78125 -0.75 L 5.78125 -3.359375 L 8.890625 -3.359375 L 8.890625 -4.578125 L 5.78125 -4.578125 L 5.78125 -6.875 L 9.296875 -6.875 L 9.296875 -8.09375 L 1 -8.09375 L 1 -6.875 L 4.5 -6.875 L 4.5 -4.578125 L 1.484375 -4.578125 L 1.484375 -3.359375 L 4.5 -3.359375 L 4.5 -0.75 L 0.5 -0.75 L 0.5 0.453125 L 9.8125 0.453125 L 9.8125 -0.75 Z M 5.78125 -0.75 "/></g></g></g><g fill="#575756" fill-opacity="1"><g transform="translate(28.363129, 27.498123)"><g><path d="M 5.046875 -6.53125 L 6.71875 -6.53125 C 6.375 -6.203125 6 -5.90625 5.609375 -5.609375 L 5.046875 -5.609375 Z M 7.296875 -2.046875 L 3.75 -2.046875 L 3.75 -2.703125 L 7.296875 -2.703125 Z M 3.75 -0.421875 L 3.75 -1.125 L 7.296875 -1.125 L 7.296875 -0.421875 Z M 9.75 -4.53125 L 9.75 -5.609375 L 7.359375 -5.609375 C 8.109375 -6.296875 8.796875 -7.046875 9.390625 -7.859375 L 8.34375 -8.40625 C 8.015625 -7.953125 7.671875 -7.515625 7.28125 -7.09375 L 7.28125 -7.59375 L 5.046875 -7.59375 L 5.046875 -8.703125 L 3.828125 -8.703125 L 3.828125 -7.59375 L 1.421875 -7.59375 L 1.421875 -6.53125 L 3.828125 -6.53125 L 3.828125 -5.609375 L 0.53125 -5.609375 L 0.53125 -4.53125 L 4.03125 -4.53125 C 2.84375 -3.828125 1.546875 -3.234375 0.203125 -2.8125 C 0.4375 -2.578125 0.796875 -2.078125 0.953125 -1.8125 C 1.484375 -2 2.015625 -2.234375 2.53125 -2.453125 L 2.53125 0.90625 L 3.75 0.90625 L 3.75 0.59375 L 7.296875 0.59375 L 7.296875 0.859375 L 8.5625 0.859375 L 8.5625 -3.703125 L 4.828125 -3.703125 C 5.25 -3.96875 5.640625 -4.234375 6.046875 -4.53125 Z M 9.75 -4.53125 "/></g></g></g><g fill="#575756" fill-opacity="1"><g transform="translate(39.479677, 27.498123)"><g><path d="M 1.5625 -3.609375 L 1.5625 -4.828125 L 2.0625 -4.828125 L 2.0625 -3.609375 Z M 2.0625 -7.015625 L 2.0625 -5.84375 L 1.5625 -5.84375 L 1.5625 -7.015625 Z M 3.640625 -5.84375 L 3.078125 -5.84375 L 3.078125 -7.015625 L 3.640625 -7.015625 Z M 3.078125 -3.609375 L 3.078125 -4.828125 L 3.640625 -4.828125 L 3.640625 -3.609375 Z M 3.640625 -2.578125 L 3.640625 -2.21875 L 4.578125 -2.21875 L 4.578125 -8.046875 L 0.65625 -8.046875 L 0.65625 -2.0625 L 1.5625 -2.0625 L 1.5625 -2.578125 L 2.0625 -2.578125 L 2.0625 0.890625 L 3.078125 0.890625 L 3.078125 -2.578125 Z M 4.46875 0.609375 C 4.921875 0.0625 5.1875 -0.8125 5.34375 -1.578125 L 4.4375 -1.875 C 4.28125 -1.171875 4 -0.390625 3.59375 0.109375 Z M 5.390625 -1.453125 C 5.515625 -0.890625 5.609375 -0.171875 5.609375 0.296875 L 6.421875 0.140625 C 6.390625 -0.328125 6.296875 -1.03125 6.15625 -1.578125 Z M 6.453125 -1.546875 C 6.65625 -1.09375 6.828125 -0.484375 6.875 -0.078125 L 7.625 -0.3125 C 7.546875 -0.6875 7.359375 -1.28125 7.140625 -1.734375 Z M 8.078125 -7.015625 L 8.078125 -6.59375 L 6.03125 -6.59375 L 6.03125 -7.015625 Z M 6.03125 -5.390625 L 6.03125 -5.828125 L 8.078125 -5.828125 L 8.078125 -5.390625 Z M 9.953125 -3.328125 L 9.953125 -4.203125 L 6.03125 -4.203125 L 6.03125 -4.59375 L 9.1875 -4.59375 L 9.1875 -7.8125 L 7.5 -7.8125 C 7.625 -8.046875 7.75 -8.28125 7.859375 -8.546875 L 6.515625 -8.703125 C 6.46875 -8.46875 6.375 -8.125 6.28125 -7.8125 L 4.921875 -7.8125 L 4.921875 -2.0625 L 8.640625 -2.0625 C 8.625 -1.671875 8.609375 -1.359375 8.578125 -1.109375 C 8.4375 -1.375 8.234375 -1.703125 8.046875 -1.96875 L 7.421875 -1.703125 C 7.65625 -1.375 7.890625 -0.890625 7.984375 -0.59375 L 8.546875 -0.859375 C 8.5 -0.4375 8.421875 -0.234375 8.34375 -0.140625 C 8.25 -0.046875 8.1875 -0.03125 8.03125 -0.03125 C 7.890625 -0.03125 7.59375 -0.046875 7.234375 -0.078125 C 7.375 0.203125 7.5 0.59375 7.5 0.890625 C 7.953125 0.90625 8.359375 0.890625 8.609375 0.859375 C 8.875 0.828125 9.09375 0.734375 9.28125 0.53125 C 9.53125 0.21875 9.65625 -0.578125 9.75 -2.53125 C 9.765625 -2.65625 9.78125 -2.9375 9.78125 -2.9375 L 6.03125 -2.9375 L 6.03125 -3.328125 Z M 9.953125 -3.328125 "/></g></g></g><path fill="#e39529" d="M 41.707031 13.789062 C 42.023438 13.785156 42.34375 13.789062 42.660156 13.765625 C 42.898438 13.75 43.054688 13.585938 43.195312 13.429688 C 43.597656 12.980469 44.101562 12.632812 44.578125 12.261719 C 44.660156 12.199219 44.753906 12.128906 44.863281 12.125 C 45.316406 12.117188 45.03125 12.578125 45.101562 12.769531 C 45.132812 12.851562 45.191406 12.917969 45.253906 12.976562 C 45.484375 13.195312 45.800781 13.308594 46.109375 13.382812 C 46.289062 13.425781 47.523438 13.585938 47.367188 13.917969 C 47.355469 13.945312 47.328125 13.964844 47.304688 13.984375 C 47.160156 14.101562 46.988281 14.21875 46.871094 14.363281 C 46.699219 14.550781 46.726562 14.667969 46.953125 14.8125 C 47.144531 14.929688 47.433594 15.167969 47.039062 15.238281 C 46.652344 15.304688 46.210938 15.097656 45.820312 15.050781 C 45.324219 14.992188 44.820312 14.9375 44.324219 14.828125 C 43.5 14.644531 42.667969 14.574219 41.84375 14.558594 C 41.570312 14.550781 41.320312 14.535156 41.066406 14.429688 C 41.1875 14.128906 41.523438 14.03125 41.707031 13.789062 " fill-opacity="1" fill-rule="nonzero"/><g clip-path="url(#fb980340e7)"><path fill="#e39529" d="M 48.484375 11.339844 C 48.386719 11.066406 48.089844 10.957031 47.992188 10.703125 C 47.882812 10.410156 48.46875 10.125 48.308594 9.828125 C 48.285156 9.789062 48.25 9.757812 48.210938 9.738281 C 47.820312 9.550781 47.457031 10.003906 47.101562 9.707031 C 46.871094 9.511719 46.792969 9.128906 46.835938 8.847656 C 46.839844 8.816406 46.839844 8.78125 46.824219 8.75 C 46.769531 8.636719 46.65625 8.679688 46.578125 8.730469 C 46.1875 8.960938 45.914062 9.308594 45.554688 9.574219 C 45.152344 9.867188 44.757812 10.238281 44.335938 10.492188 C 44.117188 10.625 43.976562 10.710938 43.714844 10.746094 C 43.335938 10.792969 42.9375 10.660156 42.839844 10.890625 C 42.777344 11.035156 42.738281 11.257812 42.886719 11.292969 C 43.082031 11.339844 43.445312 11.363281 43.652344 11.351562 C 43.84375 11.339844 44.160156 11.355469 44.460938 11.335938 C 44.800781 11.34375 45.140625 11.355469 45.480469 11.375 C 46.40625 11.425781 47.320312 11.597656 48.253906 11.578125 L 48.304688 11.578125 C 48.351562 11.578125 48.398438 11.566406 48.4375 11.539062 C 48.523438 11.480469 48.507812 11.40625 48.484375 11.339844 " fill-opacity="1" fill-rule="nonzero"/></g><g clip-path="url(#e015a6e89c)"><path fill="#e39529" d="M 20.515625 13.710938 C 20.253906 13.835938 19.746094 13.75 19.445312 13.789062 C 18.753906 13.886719 17.957031 13.988281 17.277344 13.753906 C 16.625 13.53125 16.519531 12.929688 17.183594 12.621094 C 17.285156 12.574219 17.386719 12.523438 17.492188 12.476562 C 17.828125 12.320312 18.160156 12.296875 18.421875 12 C 18.585938 11.8125 18.800781 11.554688 19.054688 11.71875 C 19.171875 11.796875 19.273438 11.925781 19.410156 11.972656 C 19.566406 12.027344 19.710938 11.96875 19.871094 11.972656 C 20.117188 11.984375 20.28125 12.082031 20.292969 12.375 C 20.304688 12.765625 20.390625 13.101562 20.714844 13.386719 C 20.96875 13.605469 20.65625 13.644531 20.515625 13.710938 " fill-opacity="1" fill-rule="nonzero"/></g><path fill="#856e6f" d="M 21.722656 11.507812 C 21.644531 11.46875 21.589844 11.402344 21.605469 11.320312 C 21.621094 11.242188 21.703125 11.246094 21.769531 11.25 C 21.972656 11.269531 22.175781 11.265625 22.378906 11.199219 C 22.449219 11.175781 22.542969 11.1875 22.570312 11.277344 C 22.59375 11.355469 22.519531 11.390625 22.472656 11.433594 C 22.234375 11.632812 21.972656 11.535156 21.722656 11.507812 " fill-opacity="1" fill-rule="nonzero"/><g clip-path="url(#963f0dc619)"><path fill="#e8e4be" d="M 22.472656 11.433594 C 22.234375 11.632812 21.972656 11.535156 21.722656 11.507812 C 21.644531 11.46875 21.589844 11.402344 21.605469 11.320312 C 21.621094 11.242188 21.703125 11.246094 21.769531 11.25 C 21.972656 11.269531 22.175781 11.265625 22.378906 11.199219 C 22.449219 11.175781 22.542969 11.1875 22.570312 11.277344 C 22.59375 11.355469 22.519531 11.390625 22.472656 11.433594 Z M 42.941406 6.898438 C 42.777344 6.984375 42.597656 7.042969 42.425781 7.125 C 40.894531 7.84375 38.929688 5.828125 37.96875 5.09375 C 34.980469 2.804688 30.421875 4.25 27.882812 6.527344 C 27.429688 6.933594 26.992188 7.367188 26.535156 7.769531 C 26.015625 8.230469 25.488281 8.683594 24.988281 9.167969 C 24.722656 9.425781 24.402344 9.3125 24.121094 9.164062 C 23.078125 8.605469 21.996094 8.535156 20.902344 8.941406 C 20.429688 9.117188 20.050781 9.464844 19.65625 9.792969 C 19.371094 10.03125 19.152344 10.339844 19 10.683594 C 18.894531 10.917969 18.695312 11.425781 18.855469 11.667969 C 19.070312 11.992188 19.234375 12.054688 19.582031 12.109375 C 19.839844 12.148438 20.28125 12.039062 20.292969 12.375 C 20.304688 12.765625 20.390625 13.101562 20.714844 13.386719 C 20.96875 13.605469 20.65625 13.644531 20.515625 13.710938 C 21.332031 14.199219 22.203125 14 23.058594 13.894531 C 23.722656 13.816406 24.328125 13.492188 24.996094 13.386719 C 25.742188 13.265625 26.417969 13.40625 27.085938 13.683594 C 28.84375 14.414062 29.671875 15.296875 31.5 15.890625 C 34.703125 16.925781 38.730469 17.058594 41.167969 14.636719 C 42.894531 12.914062 42.832031 10.769531 43.132812 8.453125 C 43.191406 7.996094 43.183594 7.535156 43.21875 7.074219 C 43.242188 6.796875 43.140625 6.796875 42.941406 6.898438 " fill-opacity="1" fill-rule="nonzero"/></g><path fill="#e5dc9c" d="M 39.847656 9.808594 L 39.734375 9.871094 L 39.617188 9.925781 L 39.496094 9.96875 L 39.375 10.003906 C 39.210938 10.050781 39.042969 10.070312 38.878906 10.070312 C 38.71875 10.066406 38.554688 10.042969 38.402344 9.992188 C 38.339844 9.972656 38.269531 9.988281 38.222656 10.046875 C 38.171875 10.109375 38.171875 10.207031 38.222656 10.273438 L 38.230469 10.285156 C 38.320312 10.40625 38.410156 10.523438 38.5 10.644531 C 38.550781 10.714844 38.601562 10.78125 38.652344 10.847656 C 38.242188 11.28125 37.738281 11.613281 37.1875 11.808594 C 37.039062 11.867188 36.882812 11.90625 36.730469 11.941406 L 36.613281 11.964844 C 36.574219 11.972656 36.535156 11.976562 36.496094 11.984375 C 36.417969 11.996094 36.335938 12.003906 36.257812 12.011719 C 36.097656 12.023438 35.9375 12.027344 35.773438 12.019531 C 35.609375 12.015625 35.449219 12.003906 35.28125 11.988281 C 34.953125 11.949219 34.621094 11.898438 34.300781 11.828125 C 33.976562 11.757812 33.664062 11.65625 33.367188 11.519531 C 33.070312 11.378906 32.789062 11.199219 32.550781 10.964844 C 32.429688 10.847656 32.316406 10.722656 32.21875 10.582031 C 32.21875 10.578125 32.21875 10.578125 32.214844 10.578125 C 32.179688 10.519531 32.09375 10.570312 32.121094 10.632812 C 32.195312 10.800781 32.289062 10.957031 32.402344 11.105469 C 32.617188 11.394531 32.898438 11.640625 33.207031 11.828125 C 33.515625 12.019531 33.851562 12.15625 34.191406 12.261719 C 34.359375 12.3125 34.53125 12.355469 34.703125 12.394531 C 34.875 12.433594 35.046875 12.464844 35.222656 12.492188 C 35.394531 12.519531 35.574219 12.535156 35.753906 12.546875 C 35.929688 12.558594 36.113281 12.558594 36.292969 12.546875 C 36.382812 12.539062 36.476562 12.53125 36.566406 12.519531 C 36.609375 12.511719 36.65625 12.503906 36.703125 12.496094 L 36.835938 12.472656 C 37.015625 12.429688 37.191406 12.378906 37.363281 12.316406 C 38.050781 12.054688 38.664062 11.597656 39.101562 11 L 39.113281 10.988281 C 39.171875 10.90625 39.167969 10.792969 39.097656 10.71875 C 38.996094 10.601562 38.890625 10.484375 38.785156 10.371094 C 38.824219 10.367188 38.859375 10.367188 38.898438 10.359375 C 39.085938 10.335938 39.269531 10.285156 39.441406 10.207031 L 39.570312 10.144531 L 39.691406 10.074219 L 39.804688 9.992188 L 39.914062 9.90625 C 39.914062 9.90625 39.917969 9.902344 39.917969 9.902344 C 39.96875 9.855469 39.910156 9.773438 39.851562 9.808594 C 39.851562 9.808594 39.847656 9.808594 39.847656 9.808594 " fill-opacity="1" fill-rule="nonzero"/></svg>