<svg xmlns="http://www.w3.org/2000/svg" xmlns:xlink="http://www.w3.org/1999/xlink" width="400" zoomAndPan="magnify" viewBox="0 0 300 299.999988" height="400" preserveAspectRatio="xMidYMid meet" version="1.0"><defs><g/><clipPath id="81d9bf67fc"><path d="M 84.894531 81.703125 L 221.394531 81.703125 L 221.394531 218.203125 L 84.894531 218.203125 Z M 84.894531 81.703125 " clip-rule="nonzero"/></clipPath><clipPath id="fd4211299b"><path d="M 153.191406 81.703125 C 115.46875 81.703125 84.894531 112.28125 84.894531 150 C 84.894531 187.71875 115.46875 218.296875 153.191406 218.296875 C 190.910156 218.296875 221.488281 187.71875 221.488281 150 C 221.488281 112.28125 190.910156 81.703125 153.191406 81.703125 Z M 153.191406 81.703125 " clip-rule="nonzero"/></clipPath><clipPath id="418cef1238"><path d="M 68.554688 129.007812 L 231.582031 129.007812 L 231.582031 170.992188 L 68.554688 170.992188 Z M 68.554688 129.007812 " clip-rule="nonzero"/></clipPath><clipPath id="3df9693539"><path d="M 150 129.007812 C 105.019531 129.007812 68.554688 138.40625 68.554688 150 C 68.554688 161.59375 105.019531 170.992188 150 170.992188 C 194.980469 170.992188 231.445312 161.59375 231.445312 150 C 231.445312 138.40625 194.980469 129.007812 150 129.007812 Z M 150 129.007812 " clip-rule="nonzero"/></clipPath><clipPath id="0ff84a08c2"><path d="M 183 132 L 202.523438 132 L 202.523438 142 L 183 142 Z M 183 132 " clip-rule="nonzero"/></clipPath><clipPath id="573d4ab43e"><path d="M 104.964844 117.222656 L 185.191406 117.222656 L 185.191406 157.714844 L 104.964844 157.714844 Z M 104.964844 117.222656 " clip-rule="nonzero"/></clipPath></defs><g clip-path="url(#81d9bf67fc)"><g clip-path="url(#fd4211299b)"><path stroke-linecap="butt" transform="matrix(0.75, 0, 0, 0.75, 84.892931, 81.702944)" fill="none" stroke-linejoin="miter" d="M 91.064641 0.000241697 C 40.767762 0.000241697 0.00213358 40.771078 0.00213358 91.062749 C 0.00213358 141.35442 40.767762 182.125257 91.064641 182.125257 C 141.356312 182.125257 182.127148 141.35442 182.127148 91.062749 C 182.127148 40.771078 141.356312 0.000241697 91.064641 0.000241697 Z M 91.064641 0.000241697 " stroke="#e39529" stroke-width="18" stroke-opacity="1" stroke-miterlimit="4"/></g></g><g clip-path="url(#418cef1238)"><g clip-path="url(#3df9693539)"><path fill="#fffadd" d="M 68.554688 129.007812 L 231.417969 129.007812 L 231.417969 170.992188 L 68.554688 170.992188 Z M 68.554688 129.007812 " fill-opacity="1" fill-rule="nonzero"/></g></g><path fill="#e39529" d="M 180.164062 148.746094 C 181.207031 148.722656 182.257812 148.734375 183.296875 148.667969 C 184.070312 148.617188 184.582031 148.085938 185.042969 147.585938 C 186.367188 146.152344 188.015625 145.046875 189.578125 143.859375 C 189.855469 143.648438 190.15625 143.429688 190.523438 143.421875 C 192 143.386719 191.066406 144.863281 191.304688 145.484375 C 191.402344 145.738281 191.589844 145.957031 191.796875 146.144531 C 192.5625 146.847656 193.59375 147.207031 194.605469 147.441406 C 195.195312 147.574219 199.253906 148.089844 198.734375 149.152344 C 198.691406 149.238281 198.613281 149.300781 198.535156 149.363281 C 198.058594 149.742188 197.488281 150.113281 197.101562 150.582031 C 196.539062 151.171875 196.628906 151.558594 197.378906 152.015625 C 198.007812 152.394531 198.953125 153.152344 197.660156 153.371094 C 196.394531 153.585938 194.945312 152.933594 193.664062 152.785156 C 192.03125 152.59375 190.375 152.414062 188.757812 152.0625 C 186.046875 151.476562 183.324219 151.253906 180.605469 151.199219 C 179.714844 151.179688 178.894531 151.132812 178.066406 150.789062 C 178.464844 149.828125 179.558594 149.515625 180.164062 148.746094 " fill-opacity="1" fill-rule="nonzero"/><g clip-path="url(#0ff84a08c2)"><path fill="#e39529" d="M 202.398438 140.90625 C 202.082031 140.035156 201.105469 139.675781 200.789062 138.863281 C 200.421875 137.929688 202.351562 137.019531 201.816406 136.066406 C 201.746094 135.941406 201.632812 135.84375 201.503906 135.78125 C 200.21875 135.183594 199.03125 136.632812 197.859375 135.679688 C 197.105469 135.0625 196.855469 133.835938 196.992188 132.9375 C 197.007812 132.828125 197 132.714844 196.953125 132.617188 C 196.777344 132.261719 196.40625 132.398438 196.140625 132.550781 C 194.867188 133.296875 193.96875 134.410156 192.789062 135.253906 C 191.472656 136.191406 190.179688 137.375 188.792969 138.195312 C 188.066406 138.625 187.609375 138.898438 186.746094 139.003906 C 185.503906 139.160156 184.195312 138.734375 183.875 139.472656 C 183.675781 139.933594 183.546875 140.644531 184.035156 140.757812 C 184.671875 140.902344 185.875 140.980469 186.546875 140.941406 C 187.171875 140.902344 188.21875 140.953125 189.199219 140.898438 C 190.316406 140.921875 191.429688 140.953125 192.542969 141.015625 C 195.589844 141.183594 198.585938 141.726562 201.644531 141.671875 L 201.808594 141.667969 C 201.964844 141.667969 202.121094 141.628906 202.25 141.542969 C 202.523438 141.359375 202.476562 141.117188 202.398438 140.90625 " fill-opacity="1" fill-rule="nonzero"/></g><path fill="#e39529" d="M 110.636719 148.496094 C 109.777344 148.894531 108.113281 148.613281 107.128906 148.746094 C 104.859375 149.050781 102.242188 149.375 100.015625 148.628906 C 97.871094 147.910156 97.527344 145.996094 99.695312 145.007812 C 100.035156 144.851562 100.375 144.699219 100.710938 144.542969 C 101.8125 144.042969 102.910156 143.964844 103.769531 143.015625 C 104.304688 142.421875 105.003906 141.59375 105.839844 142.121094 C 106.234375 142.371094 106.5625 142.78125 107.011719 142.933594 C 107.523438 143.105469 107.992188 142.914062 108.515625 142.933594 C 109.332031 142.964844 109.871094 143.28125 109.902344 144.21875 C 109.945312 145.46875 110.222656 146.546875 111.292969 147.457031 C 112.121094 148.160156 111.097656 148.28125 110.636719 148.496094 " fill-opacity="1" fill-rule="nonzero"/><path fill="#856e6f" d="M 114.59375 141.445312 C 114.339844 141.316406 114.164062 141.109375 114.214844 140.847656 C 114.261719 140.59375 114.53125 140.601562 114.742188 140.621094 C 115.421875 140.683594 116.085938 140.671875 116.746094 140.457031 C 116.976562 140.382812 117.285156 140.414062 117.378906 140.710938 C 117.453125 140.960938 117.210938 141.066406 117.050781 141.203125 C 116.277344 141.847656 115.421875 141.53125 114.59375 141.445312 " fill-opacity="1" fill-rule="nonzero"/><g clip-path="url(#573d4ab43e)"><path fill="#e8e4be" d="M 117.050781 141.203125 C 116.277344 141.847656 115.421875 141.53125 114.59375 141.445312 C 114.339844 141.316406 114.164062 141.109375 114.214844 140.847656 C 114.261719 140.59375 114.53125 140.601562 114.742188 140.621094 C 115.421875 140.683594 116.085938 140.671875 116.746094 140.457031 C 116.976562 140.382812 117.285156 140.414062 117.378906 140.710938 C 117.453125 140.957031 117.210938 141.066406 117.050781 141.203125 Z M 184.214844 126.699219 C 183.671875 126.976562 183.082031 127.164062 182.523438 127.417969 C 177.5 129.714844 171.046875 123.273438 167.902344 120.925781 C 158.101562 113.597656 143.136719 118.222656 134.8125 125.507812 C 133.320312 126.8125 131.890625 128.191406 130.386719 129.484375 C 128.675781 130.953125 126.953125 132.410156 125.308594 133.957031 C 124.433594 134.777344 123.390625 134.421875 122.46875 133.941406 C 119.042969 132.164062 115.492188 131.933594 111.898438 133.230469 C 110.351562 133.789062 109.109375 134.90625 107.8125 135.960938 C 106.875 136.726562 106.164062 137.703125 105.664062 138.804688 C 105.316406 139.5625 104.660156 141.179688 105.191406 141.960938 C 105.894531 142.992188 106.429688 143.195312 107.570312 143.363281 C 108.417969 143.492188 109.867188 143.144531 109.902344 144.21875 C 109.945312 145.46875 110.222656 146.546875 111.292969 147.457031 C 112.121094 148.160156 111.097656 148.28125 110.636719 148.496094 C 113.320312 150.050781 116.167969 149.414062 118.976562 149.082031 C 121.15625 148.824219 123.140625 147.789062 125.335938 147.449219 C 127.777344 147.066406 130.007812 147.511719 132.195312 148.398438 C 137.957031 150.738281 140.675781 153.566406 146.671875 155.460938 C 157.179688 158.777344 170.402344 159.199219 178.390625 151.449219 C 184.066406 145.945312 183.855469 139.074219 184.84375 131.667969 C 185.039062 130.214844 185.003906 128.730469 185.125 127.261719 C 185.199219 126.367188 184.867188 126.367188 184.214844 126.699219 " fill-opacity="1" fill-rule="nonzero"/></g><path fill="#e5dc9c" d="M 174.0625 136.011719 L 173.6875 136.207031 L 173.300781 136.375 L 172.910156 136.519531 L 172.511719 136.636719 C 171.976562 136.777344 171.429688 136.84375 170.890625 136.839844 C 170.351562 136.832031 169.824219 136.753906 169.324219 136.597656 C 169.121094 136.535156 168.886719 136.585938 168.730469 136.769531 C 168.558594 136.976562 168.566406 137.277344 168.726562 137.492188 L 168.753906 137.527344 C 169.046875 137.917969 169.34375 138.296875 169.640625 138.683594 C 169.804688 138.902344 169.972656 139.121094 170.144531 139.335938 C 168.800781 140.71875 167.136719 141.773438 165.339844 142.40625 C 164.847656 142.585938 164.339844 142.71875 163.832031 142.828125 L 163.449219 142.90625 C 163.320312 142.925781 163.191406 142.945312 163.0625 142.964844 C 162.808594 143.007812 162.546875 143.027344 162.285156 143.050781 C 161.761719 143.085938 161.230469 143.101562 160.695312 143.085938 C 160.164062 143.070312 159.625 143.03125 159.085938 142.976562 C 158.007812 142.859375 156.914062 142.699219 155.859375 142.46875 C 154.800781 142.238281 153.769531 141.921875 152.796875 141.480469 C 151.824219 141.035156 150.90625 140.457031 150.117188 139.710938 C 149.722656 139.335938 149.355469 138.929688 149.035156 138.480469 C 149.03125 138.476562 149.03125 138.46875 149.027344 138.464844 C 148.902344 138.285156 148.625 138.441406 148.714844 138.640625 C 148.957031 139.175781 149.269531 139.6875 149.628906 140.15625 C 150.347656 141.082031 151.265625 141.863281 152.277344 142.464844 C 153.289062 143.074219 154.390625 143.519531 155.503906 143.851562 C 156.058594 144.023438 156.621094 144.15625 157.183594 144.28125 C 157.746094 144.402344 158.3125 144.503906 158.886719 144.589844 C 159.457031 144.675781 160.039062 144.734375 160.625 144.769531 C 161.214844 144.800781 161.808594 144.808594 162.402344 144.765625 C 162.699219 144.742188 163 144.722656 163.296875 144.675781 C 163.445312 144.652344 163.59375 144.636719 163.742188 144.609375 L 164.183594 144.523438 C 164.769531 144.394531 165.351562 144.234375 165.914062 144.023438 C 168.164062 143.195312 170.175781 141.730469 171.613281 139.824219 L 171.648438 139.78125 C 171.839844 139.523438 171.832031 139.15625 171.605469 138.914062 C 171.265625 138.546875 170.929688 138.171875 170.582031 137.808594 C 170.582031 137.808594 170.582031 137.808594 170.582031 137.804688 C 170.703125 137.796875 170.828125 137.789062 170.945312 137.773438 C 171.570312 137.699219 172.171875 137.527344 172.734375 137.285156 L 173.148438 137.085938 L 173.546875 136.855469 L 173.921875 136.601562 L 174.277344 136.320312 C 174.28125 136.3125 174.289062 136.308594 174.292969 136.304688 C 174.464844 136.15625 174.273438 135.890625 174.078125 136.003906 C 174.074219 136.003906 174.066406 136.007812 174.0625 136.011719 " fill-opacity="1" fill-rule="nonzero"/><g fill="#e39529" fill-opacity="1"><g transform="translate(107.73541, 177.691848)"><g><path d="M 22.109375 12.71875 L 19.546875 16.21875 L 0.5 2.359375 L 3.0625 -1.140625 Z M 30.78125 -1.25 L 28.546875 1.828125 L 11.296875 -10.734375 L 13.53125 -13.8125 Z M 25.5 4.84375 L 23.265625 7.90625 L 7.34375 -3.6875 L 9.578125 -6.75 Z M 25.5 4.84375 "/></g></g></g><g fill="#e39529" fill-opacity="1"><g transform="translate(139.288757, 196.791736)"><g><path d="M 0.109375 0.921875 C 0.597656 -1.367188 1.007812 -3.71875 1.34375 -6.125 C 1.6875 -8.53125 1.929688 -10.863281 2.078125 -13.125 L 1.234375 -13.125 L 1.234375 -16.53125 L 3.46875 -16.53125 L 3.46875 -20.03125 L 8.46875 -20.03125 L 8.46875 -16.53125 L 10.140625 -16.53125 L 10.140625 -13.125 L 8.140625 -13.125 L 8.140625 -11.71875 L 9.5625 -12.046875 C 9.757812 -11.285156 9.945312 -10.550781 10.125 -9.84375 C 10.3125 -9.144531 10.476562 -8.414062 10.625 -7.65625 C 11.863281 -8.976562 12.875 -10.3125 13.65625 -11.65625 C 14.445312 -13.007812 15.113281 -14.4375 15.65625 -15.9375 L 10.6875 -15.9375 L 10.6875 -19.59375 L 26.421875 -19.59375 L 26.421875 -15.9375 L 20.546875 -15.9375 C 20.328125 -15.21875 20.085938 -14.507812 19.828125 -13.8125 C 19.566406 -13.113281 19.269531 -12.414062 18.9375 -11.71875 L 20.359375 -11.71875 L 20.359375 -10.296875 L 23.421875 -11.9375 C 23.734375 -11.5 24.0625 -11.019531 24.40625 -10.5 C 24.75 -9.988281 25.085938 -9.441406 25.421875 -8.859375 C 25.765625 -8.273438 26.09375 -7.679688 26.40625 -7.078125 C 26.726562 -6.472656 27.023438 -5.875 27.296875 -5.28125 L 23.828125 -3.140625 C 23.335938 -4.273438 22.78125 -5.394531 22.15625 -6.5 C 21.539062 -7.613281 20.941406 -8.625 20.359375 -9.53125 L 20.359375 2.328125 L 15.5 2.328125 L 15.5 -6.0625 C 14.675781 -5.007812 13.738281 -3.960938 12.6875 -2.921875 L 9.859375 -5.71875 L 8.90625 -5.46875 C 8.800781 -6.195312 8.679688 -6.890625 8.546875 -7.546875 C 8.421875 -8.210938 8.285156 -8.894531 8.140625 -9.59375 L 8.140625 2.375 L 3.9375 2.375 L 3.9375 -9.859375 C 3.863281 -8.953125 3.78125 -8.003906 3.6875 -7.015625 C 3.59375 -6.035156 3.488281 -5.046875 3.375 -4.046875 C 3.257812 -3.054688 3.128906 -2.078125 2.984375 -1.109375 C 2.835938 -0.148438 2.671875 0.765625 2.484375 1.640625 Z M 0.109375 0.921875 "/></g></g></g><g fill="#e39529" fill-opacity="1"><g transform="translate(175.69872, 193.775317)"><g><path d="M 5.234375 -28.34375 L 5.984375 -27.296875 L 9.359375 -29.765625 L 13.84375 -23.609375 L 7.453125 -18.953125 L 7.9375 -18.28125 L 14.640625 -23.15625 L 15.953125 -21.359375 L 9.25 -16.484375 L 9.703125 -15.859375 L 16.40625 -20.734375 L 21.96875 -13.09375 L 18.1875 -10.34375 L 17.9375 -10.6875 L 17.296875 -10.21875 C 16.679688 -11 16.050781 -11.769531 15.40625 -12.53125 C 14.769531 -13.289062 14.140625 -13.992188 13.515625 -14.640625 L 14.90625 -15.65625 C 15.320312 -15.226562 15.742188 -14.769531 16.171875 -14.28125 C 16.609375 -13.800781 17.035156 -13.304688 17.453125 -12.796875 L 17.78125 -13.03125 L 15.09375 -16.71875 L 8.0625 -11.609375 L -0.125 -22.859375 L 2.5625 -24.8125 L 1.8125 -25.859375 Z M -1.21875 -22.625 L 7.625 -10.46875 L 4.640625 -8.296875 L 8.296875 -3.28125 L 5.6875 -1.390625 L 2.03125 -6.40625 L -1.015625 -4.1875 L -9.859375 -16.34375 Z M 11.4375 -5.859375 C 10.976562 -6.628906 10.457031 -7.425781 9.875 -8.25 C 9.289062 -9.070312 8.660156 -9.859375 7.984375 -10.609375 L 9.546875 -11.75 C 10.117188 -11.039062 10.734375 -10.265625 11.390625 -9.421875 C 12.046875 -8.578125 12.628906 -7.804688 13.140625 -7.109375 Z M 11.28125 -13.015625 C 11.945312 -12.304688 12.582031 -11.5625 13.1875 -10.78125 C 13.800781 -10.007812 14.398438 -9.265625 14.984375 -8.546875 L 13.5 -7.453125 C 12.96875 -8.253906 12.382812 -9.046875 11.75 -9.828125 C 11.113281 -10.617188 10.5 -11.347656 9.90625 -12.015625 Z M 13.09375 -14.328125 C 13.375 -14.046875 13.675781 -13.710938 14 -13.328125 C 14.320312 -12.953125 14.648438 -12.566406 14.984375 -12.171875 C 15.328125 -11.785156 15.660156 -11.398438 15.984375 -11.015625 C 16.304688 -10.628906 16.613281 -10.269531 16.90625 -9.9375 L 15.46875 -8.890625 C 14.90625 -9.609375 14.300781 -10.375 13.65625 -11.1875 C 13.019531 -12.007812 12.382812 -12.734375 11.75 -13.359375 Z M 4.703125 -22.734375 L 8.015625 -25.15625 L 7.5625 -25.765625 L 4.25 -23.34375 Z M 9.46875 -23.15625 L 9.03125 -23.75 L 5.71875 -21.328125 L 6.15625 -20.734375 Z M -1.171875 -8.796875 L -0.21875 -9.5 L -1.671875 -11.5 L -2.625 -10.796875 Z M -4.5 -13.375 L -3.546875 -14.078125 L -4.921875 -15.953125 L -5.875 -15.25 Z M 3.28125 -12.046875 L 1.828125 -14.046875 L 0.9375 -13.390625 L 2.390625 -11.390625 Z M -2.3125 -17.84375 L -0.9375 -15.96875 L -0.046875 -16.625 L -1.421875 -18.5 Z M -2.3125 -17.84375 "/></g></g></g></svg>