<svg xmlns="http://www.w3.org/2000/svg" xmlns:xlink="http://www.w3.org/1999/xlink" width="300" zoomAndPan="magnify" viewBox="0 0 224.87999 225" height="300" preserveAspectRatio="xMidYMid meet" version="1.0"><defs><g/><clipPath id="49c9baa443"><path d="M 10.824219 12.742188 L 210.335938 12.742188 L 210.335938 212.257812 L 10.824219 212.257812 Z M 10.824219 12.742188 " clip-rule="nonzero"/></clipPath><clipPath id="0797062b14"><path d="M 110.578125 12.742188 C 55.484375 12.742188 10.824219 57.40625 10.824219 112.5 C 10.824219 167.59375 55.484375 212.257812 110.578125 212.257812 C 165.671875 212.257812 210.335938 167.59375 210.335938 112.5 C 210.335938 57.40625 165.671875 12.742188 110.578125 12.742188 Z M 110.578125 12.742188 " clip-rule="nonzero"/></clipPath><clipPath id="e19a58006a"><path d="M 10.824219 12.742188 L 210.21875 12.742188 L 210.21875 212.136719 L 10.824219 212.136719 Z M 10.824219 12.742188 " clip-rule="nonzero"/></clipPath><clipPath id="6cf03eebfa"><path d="M 110.578125 12.742188 C 55.484375 12.742188 10.824219 57.40625 10.824219 112.5 C 10.824219 167.59375 55.484375 212.253906 110.578125 212.253906 C 165.671875 212.253906 210.335938 167.59375 210.335938 112.5 C 210.335938 57.40625 165.671875 12.742188 110.578125 12.742188 Z M 110.578125 12.742188 " clip-rule="nonzero"/></clipPath><clipPath id="13dd1fbb52"><path d="M 5.78125 0.0585938 L 163.941406 0.0585938 L 163.941406 159 L 5.78125 159 Z M 5.78125 0.0585938 " clip-rule="nonzero"/></clipPath><clipPath id="5c5f499aab"><path d="M 84.859375 0.0585938 C 41.1875 0.0585938 5.78125 35.625 5.78125 79.496094 C 5.78125 123.367188 41.1875 158.929688 84.859375 158.929688 C 128.535156 158.929688 163.941406 123.367188 163.941406 79.496094 C 163.941406 35.625 128.535156 0.0585938 84.859375 0.0585938 Z M 84.859375 0.0585938 " clip-rule="nonzero"/></clipPath><clipPath id="0e3955b462"><path d="M 45 119 L 67 119 L 67 143 L 45 143 Z M 45 119 " clip-rule="nonzero"/></clipPath><clipPath id="c6f7d9425e"><path d="M 10.824219 114.390625 L 107.222656 7.519531 L 147.855469 44.171875 L 51.457031 151.042969 Z M 10.824219 114.390625 " clip-rule="nonzero"/></clipPath><clipPath id="9a7d086d87"><path d="M 107.050781 7.710938 L 10.652344 114.582031 L 51.285156 151.234375 L 147.683594 44.363281 Z M 107.050781 7.710938 " clip-rule="nonzero"/></clipPath><clipPath id="4a7c2409bc"><path d="M 107.050781 7.710938 L 10.652344 114.582031 L 51.285156 151.234375 L 147.683594 44.363281 Z M 107.050781 7.710938 " clip-rule="nonzero"/></clipPath><clipPath id="50bb7539c1"><path d="M 30 115 L 52 115 L 52 137 L 30 137 Z M 30 115 " clip-rule="nonzero"/></clipPath><clipPath id="f33cb8f05e"><path d="M 10.824219 114.390625 L 107.222656 7.519531 L 147.855469 44.171875 L 51.457031 151.042969 Z M 10.824219 114.390625 " clip-rule="nonzero"/></clipPath><clipPath id="3521bf03d5"><path d="M 107.050781 7.710938 L 10.652344 114.582031 L 51.285156 151.234375 L 147.683594 44.363281 Z M 107.050781 7.710938 " clip-rule="nonzero"/></clipPath><clipPath id="276504aa44"><path d="M 107.050781 7.710938 L 10.652344 114.582031 L 51.285156 151.234375 L 147.683594 44.363281 Z M 107.050781 7.710938 " clip-rule="nonzero"/></clipPath><clipPath id="ba17ccecc8"><path d="M 122 34 L 137 34 L 137 50 L 122 50 Z M 122 34 " clip-rule="nonzero"/></clipPath><clipPath id="2a8d071120"><path d="M 10.824219 114.390625 L 107.222656 7.519531 L 147.855469 44.171875 L 51.457031 151.042969 Z M 10.824219 114.390625 " clip-rule="nonzero"/></clipPath><clipPath id="bb8ebdc305"><path d="M 107.050781 7.710938 L 10.652344 114.582031 L 51.285156 151.234375 L 147.683594 44.363281 Z M 107.050781 7.710938 " clip-rule="nonzero"/></clipPath><clipPath id="48b57e28b7"><path d="M 107.050781 7.710938 L 10.652344 114.582031 L 51.285156 151.234375 L 147.683594 44.363281 Z M 107.050781 7.710938 " clip-rule="nonzero"/></clipPath><clipPath id="0b1be60cf4"><path d="M 112 46 L 116 46 L 116 50 L 112 50 Z M 112 46 " clip-rule="nonzero"/></clipPath><clipPath id="9c19258de9"><path d="M 10.824219 114.390625 L 107.222656 7.519531 L 147.855469 44.171875 L 51.457031 151.042969 Z M 10.824219 114.390625 " clip-rule="nonzero"/></clipPath><clipPath id="49fa5e5560"><path d="M 107.050781 7.710938 L 10.652344 114.582031 L 51.285156 151.234375 L 147.683594 44.363281 Z M 107.050781 7.710938 " clip-rule="nonzero"/></clipPath><clipPath id="caa6d0b41d"><path d="M 107.050781 7.710938 L 10.652344 114.582031 L 51.285156 151.234375 L 147.683594 44.363281 Z M 107.050781 7.710938 " clip-rule="nonzero"/></clipPath><clipPath id="c6e6ab289a"><path d="M 36 35 L 127 35 L 127 122 L 36 122 Z M 36 35 " clip-rule="nonzero"/></clipPath><clipPath id="1408e6f2f5"><path d="M 10.824219 114.390625 L 107.222656 7.519531 L 147.855469 44.171875 L 51.457031 151.042969 Z M 10.824219 114.390625 " clip-rule="nonzero"/></clipPath><clipPath id="85e98e8a1b"><path d="M 107.050781 7.710938 L 10.652344 114.582031 L 51.285156 151.234375 L 147.683594 44.363281 Z M 107.050781 7.710938 " clip-rule="nonzero"/></clipPath><clipPath id="ccd6c74aa0"><path d="M 107.050781 7.710938 L 10.652344 114.582031 L 51.285156 151.234375 L 147.683594 44.363281 Z M 107.050781 7.710938 " clip-rule="nonzero"/></clipPath><clipPath id="c049ba6ed8"><path d="M 100.222656 15.292969 L 26.566406 96.945312 L 67.273438 133.667969 L 140.929688 52.011719 Z M 100.222656 15.292969 " clip-rule="nonzero"/></clipPath><clipPath id="af68b66ac8"><path d="M 100.222656 15.292969 L 26.566406 96.945312 L 67.1875 133.589844 L 140.84375 51.933594 Z M 100.222656 15.292969 " clip-rule="nonzero"/></clipPath><clipPath id="719b491b2e"><path d="M 55 79 L 83 79 L 83 104 L 55 104 Z M 55 79 " clip-rule="nonzero"/></clipPath><clipPath id="279bf2e5b9"><path d="M 10.824219 114.390625 L 107.222656 7.519531 L 147.855469 44.171875 L 51.457031 151.042969 Z M 10.824219 114.390625 " clip-rule="nonzero"/></clipPath><clipPath id="8947171b40"><path d="M 107.050781 7.710938 L 10.652344 114.582031 L 51.285156 151.234375 L 147.683594 44.363281 Z M 107.050781 7.710938 " clip-rule="nonzero"/></clipPath><clipPath id="7a3ff482da"><path d="M 107.050781 7.710938 L 10.652344 114.582031 L 51.285156 151.234375 L 147.683594 44.363281 Z M 107.050781 7.710938 " clip-rule="nonzero"/></clipPath></defs><g clip-path="url(#49c9baa443)"><g clip-path="url(#0797062b14)"><path fill="#FFCC70" d="M 10.824219 12.742188 L 210.335938 12.742188 L 210.335938 212.257812 L 10.824219 212.257812 Z M 10.824219 12.742188 " fill-opacity="1" fill-rule="nonzero"/></g></g><g clip-path="url(#e19a58006a)"><g clip-path="url(#6cf03eebfa)"><path stroke-linecap="butt" transform="matrix(0.7496, 0, 0, 0.7496, 10.823795, 12.744009)" fill="none" stroke-linejoin="miter" d="M 133.076759 -0.00242988 C 59.579221 -0.00242988 0.00056544 59.581437 0.00056544 133.078975 C 0.00056544 206.576513 59.579221 266.155169 133.076759 266.155169 C 206.574298 266.155169 266.158164 206.576513 266.158164 133.078975 C 266.158164 59.581437 206.574298 -0.00242988 133.076759 -0.00242988 Z M 133.076759 -0.00242988 " stroke="#FFCC70" stroke-width="14" stroke-opacity="1" stroke-miterlimit="4"/></g></g><g clip-path="url(#13dd1fbb52)"><g clip-path="url(#5c5f499aab)"><path fill="#fffadd" d="M 5.78125 0.0585938 L 163.941406 0.0585938 L 163.941406 158.839844 L 5.78125 158.839844 Z M 5.78125 0.0585938 " fill-opacity="1" fill-rule="nonzero"/></g></g><g clip-path="url(#0e3955b462)"><g clip-path="url(#c6f7d9425e)"><g clip-path="url(#9a7d086d87)"><g clip-path="url(#4a7c2409bc)"><path fill="#e39529" d="M 62.808594 120.355469 C 61.828125 121.398438 60.875 122.476562 59.855469 123.46875 C 59.089844 124.214844 58.089844 124.257812 57.164062 124.273438 C 54.511719 124.320312 51.886719 125 49.261719 125.515625 C 48.796875 125.605469 48.300781 125.714844 47.953125 126.082031 C 46.566406 127.550781 48.902344 127.9375 49.304688 128.742188 C 49.46875 129.070312 49.515625 129.460938 49.515625 129.839844 C 49.519531 131.257812 48.933594 132.632812 48.238281 133.871094 C 47.832031 134.59375 44.621094 139.191406 46.164062 139.621094 C 46.289062 139.65625 46.425781 139.632812 46.558594 139.609375 C 47.378906 139.46875 48.273438 139.226562 49.101562 139.253906 C 50.210938 139.214844 50.511719 139.65625 50.28125 140.835938 C 50.085938 141.816406 49.980469 143.464844 51.386719 142.347656 C 52.761719 141.25 53.4375 139.1875 54.464844 137.746094 C 55.773438 135.914062 57.113281 134.0625 58.246094 132.101562 C 60.148438 128.8125 62.421875 125.835938 64.859375 123.023438 C 65.660156 122.101562 66.367188 121.222656 66.785156 120.070312 C 65.453125 119.601562 64.136719 120.429688 62.808594 120.355469 " fill-opacity="1" fill-rule="nonzero"/></g></g></g></g><g clip-path="url(#50bb7539c1)"><g clip-path="url(#f33cb8f05e)"><g clip-path="url(#3521bf03d5)"><g clip-path="url(#276504aa44)"><path fill="#e39529" d="M 34.527344 135.890625 C 33.945312 134.777344 34.480469 133.460938 33.957031 132.402344 C 33.355469 131.183594 30.667969 132.324219 30.207031 130.917969 C 30.144531 130.734375 30.152344 130.527344 30.210938 130.34375 C 30.789062 128.496094 33.332031 128.59375 33.449219 126.539062 C 33.527344 125.214844 32.523438 123.851562 31.5 123.175781 C 31.375 123.09375 31.265625 122.984375 31.210938 122.84375 C 31.015625 122.34375 31.496094 122.089844 31.890625 121.960938 C 33.808594 121.335938 35.75 121.433594 37.679688 120.992188 C 39.832031 120.503906 42.203125 120.257812 44.304688 119.585938 C 45.394531 119.238281 46.089844 119.019531 46.992188 118.238281 C 48.289062 117.113281 49.058594 115.398438 50.09375 115.738281 C 50.742188 115.953125 51.574219 116.46875 51.238281 117.066406 C 50.800781 117.84375 49.777344 119.140625 49.117188 119.789062 C 48.503906 120.390625 47.597656 121.5 46.636719 122.449219 C 45.640625 123.609375 44.644531 124.769531 43.6875 125.957031 C 41.058594 129.207031 38.855469 132.753906 35.988281 135.816406 L 35.835938 135.980469 C 35.691406 136.136719 35.507812 136.257812 35.304688 136.3125 C 34.867188 136.429688 34.667969 136.160156 34.527344 135.890625 " fill-opacity="1" fill-rule="nonzero"/></g></g></g></g><g clip-path="url(#ba17ccecc8)"><g clip-path="url(#2a8d071120)"><g clip-path="url(#bb8ebdc305)"><g clip-path="url(#48b57e28b7)"><path fill="#e39529" d="M 126.390625 49.363281 C 127.574219 48.851562 128.824219 46.898438 129.859375 46.019531 C 132.25 43.988281 134.976562 41.613281 136.273438 38.671875 C 137.523438 35.839844 135.917969 33.757812 132.933594 35.070312 C 132.46875 35.273438 132 35.480469 131.535156 35.683594 C 130.023438 36.351562 128.9375 37.402344 127.191406 37.414062 C 126.105469 37.421875 124.632812 37.386719 124.398438 38.714844 C 124.285156 39.335938 124.394531 40.046875 124.136719 40.636719 C 123.839844 41.3125 123.21875 41.621094 122.757812 42.171875 C 122.035156 43.03125 121.859375 43.863281 122.773438 44.746094 C 123.984375 45.917969 124.816406 47.179688 124.746094 49.089844 C 124.6875 50.566406 125.753906 49.636719 126.390625 49.363281 " fill-opacity="1" fill-rule="nonzero"/></g></g></g></g><g clip-path="url(#0b1be60cf4)"><g clip-path="url(#9c19258de9)"><g clip-path="url(#49fa5e5560)"><g clip-path="url(#caa6d0b41d)"><path fill="#856e6f" d="M 115.683594 47.011719 C 115.785156 46.632812 115.742188 46.265625 115.433594 46.082031 C 115.132812 45.902344 114.894531 46.179688 114.71875 46.417969 C 114.160156 47.164062 113.535156 47.828125 112.714844 48.308594 C 112.429688 48.472656 112.175781 48.816406 112.390625 49.179688 C 112.566406 49.480469 112.898438 49.335938 113.1875 49.292969 C 114.539062 49.089844 115.007812 47.929688 115.683594 47.011719 " fill-opacity="1" fill-rule="nonzero"/></g></g></g></g><g clip-path="url(#c6e6ab289a)"><g clip-path="url(#1408e6f2f5)"><g clip-path="url(#85e98e8a1b)"><g clip-path="url(#ccd6c74aa0)"><g clip-path="url(#c049ba6ed8)"><g clip-path="url(#af68b66ac8)"><path fill="#e8e4be" d="M 113.1875 49.292969 C 114.539062 49.089844 115.007812 47.929688 115.683594 47.011719 C 115.785156 46.632812 115.742188 46.265625 115.433594 46.082031 C 115.132812 45.902344 114.894531 46.179688 114.71875 46.417969 C 114.160156 47.164062 113.535156 47.828125 112.714844 48.308594 C 112.429688 48.472656 112.175781 48.816406 112.390625 49.179688 C 112.566406 49.480469 112.898438 49.335938 113.1875 49.292969 Z M 36.96875 104.527344 C 37.746094 104.222656 38.476562 103.792969 39.242188 103.457031 C 46.164062 100.421875 45.625 88.023438 46.152344 82.695312 C 47.800781 66.089844 66.183594 55.042969 81.128906 53.164062 C 83.808594 52.828125 86.503906 52.617188 89.183594 52.257812 C 92.230469 51.847656 95.269531 51.414062 98.335938 51.136719 C 99.960938 50.992188 100.558594 49.605469 100.925781 48.234375 C 102.289062 43.136719 105.3125 39.320312 109.914062 36.835938 C 111.898438 35.765625 114.15625 35.511719 116.40625 35.148438 C 118.03125 34.882812 119.667969 35.046875 121.234375 35.53125 C 122.308594 35.863281 124.539062 36.65625 124.832031 37.90625 C 125.21875 39.554688 124.933594 40.285156 124.058594 41.597656 C 123.40625 42.574219 121.726562 43.734375 122.773438 44.746094 C 123.984375 45.917969 124.816406 47.179688 124.746094 49.089844 C 124.6875 50.566406 125.753906 49.636719 126.390625 49.363281 C 125.484375 53.5 122.230469 55.824219 119.324219 58.382812 C 117.0625 60.367188 114.199219 61.453125 111.839844 63.378906 C 109.21875 65.515625 107.617188 68.1875 106.5 71.21875 C 103.554688 79.199219 103.898438 84.523438 100.289062 92.339844 C 93.972656 106.035156 82.253906 119.875 67.148438 120.996094 C 56.414062 121.789062 49.714844 115.359375 41.378906 109.664062 C 39.738281 108.542969 38.28125 107.167969 36.699219 105.960938 C 35.734375 105.230469 36.039062 104.890625 36.96875 104.527344 " fill-opacity="1" fill-rule="nonzero"/></g></g></g></g></g></g><g clip-path="url(#719b491b2e)"><g clip-path="url(#279bf2e5b9)"><g clip-path="url(#8947171b40)"><g clip-path="url(#7a3ff482da)"><path fill="#e5dc9c" d="M 55.632812 102.621094 L 56.175781 102.414062 L 56.699219 102.175781 L 57.203125 101.90625 L 57.6875 101.605469 C 58.316406 101.191406 58.882812 100.691406 59.375 100.140625 C 59.859375 99.585938 60.269531 98.976562 60.570312 98.324219 C 60.695312 98.066406 60.964844 97.871094 61.289062 97.882812 C 61.652344 97.890625 61.949219 98.171875 62.015625 98.527344 L 62.027344 98.589844 C 62.148438 99.238281 62.257812 99.886719 62.375 100.539062 C 62.441406 100.902344 62.503906 101.269531 62.566406 101.640625 C 65.1875 101.523438 67.773438 100.789062 70.058594 99.527344 C 70.691406 99.191406 71.285156 98.792969 71.863281 98.375 L 72.292969 98.054688 C 72.433594 97.945312 72.570312 97.828125 72.707031 97.714844 C 72.984375 97.496094 73.246094 97.246094 73.507812 97.003906 C 74.027344 96.5 74.527344 95.976562 75 95.417969 C 75.472656 94.859375 75.929688 94.277344 76.371094 93.679688 C 77.242188 92.472656 78.085938 91.214844 78.824219 89.933594 C 79.5625 88.648438 80.195312 87.316406 80.644531 85.921875 C 81.089844 84.53125 81.351562 83.074219 81.328125 81.59375 C 81.316406 80.855469 81.242188 80.113281 81.085938 79.382812 C 81.082031 79.375 81.082031 79.367188 81.082031 79.359375 C 81.015625 79.070312 81.425781 78.929688 81.542969 79.199219 C 81.855469 79.929688 82.082031 80.710938 82.222656 81.503906 C 82.496094 83.070312 82.433594 84.714844 82.109375 86.289062 C 81.792969 87.871094 81.226562 89.390625 80.539062 90.824219 C 80.199219 91.542969 79.816406 92.238281 79.421875 92.925781 C 79.03125 93.609375 78.613281 94.273438 78.171875 94.933594 C 77.734375 95.597656 77.261719 96.242188 76.753906 96.871094 C 76.246094 97.496094 75.707031 98.105469 75.121094 98.675781 C 74.824219 98.957031 74.527344 99.242188 74.210938 99.503906 C 74.050781 99.632812 73.894531 99.769531 73.734375 99.898438 L 73.242188 100.269531 C 72.574219 100.746094 71.882812 101.195312 71.152344 101.578125 C 68.257812 103.117188 64.941406 103.835938 61.703125 103.578125 L 61.628906 103.574219 C 61.195312 103.539062 60.839844 103.195312 60.800781 102.746094 C 60.742188 102.066406 60.679688 101.386719 60.628906 100.703125 C 60.507812 100.820312 60.386719 100.933594 60.261719 101.042969 C 59.617188 101.609375 58.890625 102.066406 58.128906 102.421875 L 57.546875 102.660156 L 56.957031 102.859375 L 56.351562 103.007812 L 55.746094 103.117188 C 55.734375 103.117188 55.726562 103.121094 55.714844 103.121094 C 55.410156 103.164062 55.316406 102.726562 55.609375 102.628906 C 55.617188 102.625 55.625 102.621094 55.632812 102.621094 " fill-opacity="1" fill-rule="nonzero"/></g></g></g></g><g fill="#fffadd" fill-opacity="1"><g transform="translate(80.337466, 194.774975)"><g><path d="M 37.015625 -4.4375 L 37.09375 1.921875 L 2.671875 2.328125 L 2.59375 -4.03125 Z M 34.984375 -28.375 L 35.046875 -22.828125 L 3.84375 -22.453125 L 3.78125 -28 Z M 34.125 -16.625 L 34.1875 -11.0625 L 5.390625 -10.71875 L 5.328125 -16.28125 Z M 34.125 -16.625 "/></g></g></g><g fill="#fffadd" fill-opacity="1"><g transform="translate(137.500703, 189.023531)"><g><path d="M 0.859375 1.0625 C -0.359375 -2.144531 -1.710938 -5.359375 -3.203125 -8.578125 C -4.691406 -11.796875 -6.242188 -14.847656 -7.859375 -17.734375 L -8.890625 -17.0625 L -11.59375 -21.25 L -8.84375 -23.03125 L -11.625 -27.34375 L -5.5 -31.3125 L -2.71875 -27 L -0.671875 -28.328125 L 2.03125 -24.140625 L -0.40625 -22.5625 L 0.6875 -20.859375 L 2.1875 -22.375 C 3.03125 -21.601562 3.84375 -20.859375 4.625 -20.140625 C 5.40625 -19.421875 6.1875 -18.648438 6.96875 -17.828125 C 7.4375 -20.429688 7.617188 -22.875 7.515625 -25.15625 C 7.410156 -27.445312 7.097656 -29.71875 6.578125 -31.96875 L 0.46875 -28.015625 L -2.4375 -32.515625 L 16.890625 -45.015625 L 19.796875 -40.515625 L 12.578125 -35.84375 C 12.867188 -34.800781 13.128906 -33.742188 13.359375 -32.671875 C 13.597656 -31.609375 13.785156 -30.519531 13.921875 -29.40625 L 15.671875 -30.546875 L 16.8125 -28.8125 L 19.265625 -33.234375 C 19.992188 -32.953125 20.773438 -32.625 21.609375 -32.25 C 22.453125 -31.882812 23.3125 -31.476562 24.1875 -31.03125 C 25.0625 -30.582031 25.929688 -30.113281 26.796875 -29.625 C 27.660156 -29.144531 28.5 -28.644531 29.3125 -28.125 L 26.75 -22.765625 C 25.257812 -23.765625 23.691406 -24.695312 22.046875 -25.5625 C 20.398438 -26.4375 18.859375 -27.203125 17.421875 -27.859375 L 26.828125 -13.3125 L 20.859375 -9.453125 L 14.203125 -19.734375 C 14.035156 -17.785156 13.71875 -15.753906 13.25 -13.640625 L 7.578125 -14.828125 L 6.609375 -13.765625 C 5.890625 -14.578125 5.1875 -15.34375 4.5 -16.0625 C 3.820312 -16.78125 3.117188 -17.503906 2.390625 -18.234375 L 11.890625 -3.5625 L 6.71875 -0.21875 L -3 -15.234375 C -2.363281 -14.054688 -1.710938 -12.828125 -1.046875 -11.546875 C -0.378906 -10.265625 0.273438 -8.96875 0.921875 -7.65625 C 1.566406 -6.34375 2.179688 -5.035156 2.765625 -3.734375 C 3.359375 -2.429688 3.890625 -1.175781 4.359375 0.03125 Z M 0.859375 1.0625 "/></g></g></g><g fill="#fffadd" fill-opacity="1"><g transform="translate(182.433663, 154.114996)"><g><path d="M -13.421875 -39.921875 L -11.71875 -39.125 L -9.15625 -44.671875 L 0.953125 -39.984375 L -3.90625 -29.515625 L -2.828125 -29 L 2.265625 -39.96875 L 5.203125 -38.609375 L 0.109375 -27.640625 L 1.15625 -27.15625 L 6.25 -38.125 L 18.796875 -32.296875 L 15.921875 -26.109375 L 15.328125 -26.390625 L 14.84375 -25.34375 C 13.519531 -25.894531 12.175781 -26.425781 10.8125 -26.9375 C 9.445312 -27.445312 8.140625 -27.898438 6.890625 -28.296875 L 7.953125 -30.578125 C 8.773438 -30.328125 9.628906 -30.046875 10.515625 -29.734375 C 11.410156 -29.421875 12.3125 -29.085938 13.21875 -28.734375 L 13.46875 -29.28125 L 7.40625 -32.09375 L 2.0625 -20.578125 L -16.359375 -29.140625 L -14.328125 -33.515625 L -16.03125 -34.3125 Z M -17.609375 -28.046875 L 2.3125 -18.796875 L 0.03125 -13.90625 L 8.25 -10.09375 L 6.265625 -5.8125 L -1.953125 -9.625 L -4.28125 -4.625 L -24.203125 -13.875 Z M 10.484375 -15.609375 C 9.328125 -16.253906 8.082031 -16.894531 6.75 -17.53125 C 5.425781 -18.164062 4.070312 -18.734375 2.6875 -19.234375 L 3.859375 -21.765625 C 5.097656 -21.273438 6.429688 -20.722656 7.859375 -20.109375 C 9.296875 -19.503906 10.597656 -18.929688 11.765625 -18.390625 Z M 5.1875 -24.625 C 6.539062 -24.195312 7.878906 -23.703125 9.203125 -23.140625 C 10.535156 -22.578125 11.828125 -22.046875 13.078125 -21.546875 L 11.953125 -19.109375 C 10.691406 -19.742188 9.382812 -20.335938 8.03125 -20.890625 C 6.675781 -21.453125 5.378906 -21.953125 4.140625 -22.390625 Z M 6.5625 -27.59375 C 7.132812 -27.425781 7.757812 -27.21875 8.4375 -26.96875 C 9.113281 -26.726562 9.804688 -26.472656 10.515625 -26.203125 C 11.222656 -25.941406 11.921875 -25.675781 12.609375 -25.40625 C 13.304688 -25.144531 13.953125 -24.90625 14.546875 -24.6875 L 13.453125 -22.34375 C 12.222656 -22.851562 10.910156 -23.398438 9.515625 -23.984375 C 8.117188 -24.578125 6.796875 -25.046875 5.546875 -25.390625 Z M -10.09375 -32.390625 L -7.5625 -37.828125 L -8.59375 -38.296875 L -11.125 -32.859375 Z M -4.3125 -36.3125 L -5.28125 -36.765625 L -7.8125 -31.328125 L -6.84375 -30.875 Z M -7.75 -10.421875 L -7.03125 -11.984375 L -10.296875 -13.5 L -11.015625 -11.9375 Z M -15.25 -13.90625 L -14.53125 -15.46875 L -17.609375 -16.890625 L -18.328125 -15.328125 Z M -4.375 -17.703125 L -7.640625 -19.21875 L -8.3125 -17.78125 L -5.046875 -16.265625 Z M -15.625 -21.171875 L -12.546875 -19.75 L -11.875 -21.1875 L -14.953125 -22.609375 Z M -15.625 -21.171875 "/></g></g></g></svg>
