<svg xmlns="http://www.w3.org/2000/svg" xmlns:xlink="http://www.w3.org/1999/xlink" width="300" zoomAndPan="magnify" viewBox="0 0 224.87999 225" height="300" preserveAspectRatio="xMidYMid meet" version="1.0"><defs><g/><clipPath id="54028949fc"><path d="M 10.824219 12.742188 L 210.066406 12.742188 L 210.066406 211.984375 L 10.824219 211.984375 Z M 10.824219 12.742188 " clip-rule="nonzero"/></clipPath><clipPath id="715fa5b42a"><path d="M 110.578125 12.742188 C 55.484375 12.742188 10.824219 57.40625 10.824219 112.5 C 10.824219 167.589844 55.484375 212.253906 110.578125 212.253906 C 165.671875 212.253906 210.332031 167.589844 210.332031 112.5 C 210.332031 57.40625 165.671875 12.742188 110.578125 12.742188 Z M 110.578125 12.742188 " clip-rule="nonzero"/></clipPath><clipPath id="c5aa05f529"><path d="M 0 81.835938 L 224.761719 81.835938 L 224.761719 143.164062 L 0 143.164062 Z M 0 81.835938 " clip-rule="nonzero"/></clipPath><clipPath id="1a7436b7f1"><path d="M 105.921875 81.835938 C 40.222656 81.835938 -13.039062 95.566406 -13.039062 112.5 C -13.039062 129.433594 40.222656 143.164062 105.921875 143.164062 C 171.621094 143.164062 224.878906 129.433594 224.878906 112.5 C 224.878906 95.566406 171.621094 81.835938 105.921875 81.835938 Z M 105.921875 81.835938 " clip-rule="nonzero"/></clipPath><clipPath id="6451e9e581"><path d="M 155 86 L 182.996094 86 L 182.996094 100 L 155 100 Z M 155 86 " clip-rule="nonzero"/></clipPath><clipPath id="d89783ad10"><path d="M 40.167969 64.625 L 157.625 64.625 L 157.625 123.011719 L 40.167969 123.011719 Z M 40.167969 64.625 " clip-rule="nonzero"/></clipPath></defs><g clip-path="url(#54028949fc)"><g clip-path="url(#715fa5b42a)"><path stroke-linecap="butt" transform="matrix(0.858796, 0, 0, 0.858796, 10.823796, 12.744009)" fill="none" stroke-linejoin="miter" d="M 116.156025 -0.00212092 C 52.003712 -0.00212092 0.000492427 52.005647 0.000492427 116.157961 C 0.000492427 180.305726 52.003712 232.313493 116.156025 232.313493 C 180.308339 232.313493 232.311558 180.305726 232.311558 116.157961 C 232.311558 52.005647 180.308339 -0.00212092 116.156025 -0.00212092 Z M 116.156025 -0.00212092 " stroke="#e39529" stroke-width="12.219897" stroke-opacity="1" stroke-miterlimit="4"/></g></g><g clip-path="url(#c5aa05f529)"><g clip-path="url(#1a7436b7f1)"><path fill="#fffadd" d="M -13.039062 81.835938 L 224.839844 81.835938 L 224.839844 143.164062 L -13.039062 143.164062 Z M -13.039062 81.835938 " fill-opacity="1" fill-rule="nonzero"/></g></g><path fill="#e39529" d="M 150.261719 110.082031 C 151.789062 110.046875 153.328125 110.066406 154.84375 109.964844 C 155.984375 109.894531 156.730469 109.128906 157.40625 108.40625 C 159.34375 106.339844 161.757812 104.746094 164.046875 103.035156 C 164.449219 102.730469 164.890625 102.414062 165.429688 102.402344 C 167.589844 102.355469 166.222656 104.484375 166.574219 105.378906 C 166.71875 105.742188 166.992188 106.054688 167.292969 106.328125 C 168.414062 107.34375 169.925781 107.863281 171.40625 108.195312 C 172.269531 108.390625 178.210938 109.132812 177.449219 110.664062 C 177.386719 110.789062 177.273438 110.878906 177.160156 110.96875 C 176.457031 111.515625 175.625 112.050781 175.058594 112.726562 C 174.234375 113.578125 174.367188 114.132812 175.46875 114.792969 C 176.382812 115.339844 177.769531 116.433594 175.875 116.75 C 174.019531 117.058594 171.902344 116.117188 170.023438 115.902344 C 167.632812 115.628906 165.207031 115.367188 162.839844 114.863281 C 158.871094 114.019531 154.886719 113.691406 150.910156 113.617188 C 149.605469 113.589844 148.402344 113.523438 147.191406 113.027344 C 147.773438 111.640625 149.371094 111.1875 150.261719 110.082031 " fill-opacity="1" fill-rule="nonzero"/><g clip-path="url(#6451e9e581)"><path fill="#e39529" d="M 182.816406 98.773438 C 182.347656 97.515625 180.921875 97 180.453125 95.828125 C 179.917969 94.480469 182.746094 93.167969 181.964844 91.796875 C 181.859375 91.613281 181.695312 91.472656 181.503906 91.386719 C 179.625 90.523438 177.882812 92.609375 176.171875 91.238281 C 175.0625 90.347656 174.699219 88.578125 174.898438 87.285156 C 174.921875 87.128906 174.910156 86.964844 174.839844 86.820312 C 174.582031 86.308594 174.039062 86.503906 173.652344 86.726562 C 171.785156 87.800781 170.472656 89.410156 168.742188 90.625 C 166.816406 91.976562 164.925781 93.683594 162.890625 94.867188 C 161.832031 95.484375 161.164062 95.878906 159.898438 96.035156 C 158.078125 96.257812 156.164062 95.640625 155.695312 96.707031 C 155.402344 97.371094 155.214844 98.398438 155.929688 98.558594 C 156.859375 98.769531 158.621094 98.882812 159.605469 98.824219 C 160.523438 98.773438 162.050781 98.84375 163.492188 98.761719 C 165.125 98.800781 166.753906 98.84375 168.382812 98.929688 C 172.84375 99.171875 177.234375 99.960938 181.710938 99.878906 L 181.949219 99.875 C 182.175781 99.871094 182.40625 99.816406 182.597656 99.691406 C 183 99.425781 182.929688 99.078125 182.816406 98.773438 " fill-opacity="1" fill-rule="nonzero"/></g><path fill="#e39529" d="M 48.46875 109.71875 C 47.214844 110.292969 44.777344 109.886719 43.335938 110.078125 C 40.015625 110.519531 36.179688 110.984375 32.917969 109.910156 C 29.78125 108.875 29.277344 106.113281 32.453125 104.6875 C 32.949219 104.464844 33.445312 104.242188 33.941406 104.019531 C 35.550781 103.296875 37.160156 103.1875 38.417969 101.8125 C 39.203125 100.957031 40.226562 99.765625 41.449219 100.527344 C 42.023438 100.882812 42.507812 101.480469 43.164062 101.695312 C 43.910156 101.945312 44.597656 101.671875 45.367188 101.699219 C 46.5625 101.742188 47.351562 102.199219 47.398438 103.550781 C 47.457031 105.351562 47.863281 106.910156 49.429688 108.21875 C 50.640625 109.234375 49.144531 109.410156 48.46875 109.71875 " fill-opacity="1" fill-rule="nonzero"/><path fill="#856e6f" d="M 54.265625 99.554688 C 53.890625 99.367188 53.632812 99.066406 53.707031 98.691406 C 53.777344 98.324219 54.171875 98.332031 54.484375 98.363281 C 55.476562 98.453125 56.449219 98.4375 57.417969 98.128906 C 57.75 98.023438 58.203125 98.0625 58.339844 98.492188 C 58.453125 98.851562 58.097656 99.007812 57.859375 99.203125 C 56.730469 100.132812 55.476562 99.675781 54.265625 99.554688 " fill-opacity="1" fill-rule="nonzero"/><g clip-path="url(#d89783ad10)"><path fill="#e8e4be" d="M 57.859375 99.203125 C 56.730469 100.132812 55.476562 99.675781 54.265625 99.554688 C 53.890625 99.367188 53.632812 99.066406 53.707031 98.691406 C 53.777344 98.324219 54.171875 98.332031 54.484375 98.363281 C 55.476562 98.453125 56.449219 98.4375 57.417969 98.128906 C 57.75 98.023438 58.203125 98.0625 58.339844 98.492188 C 58.453125 98.851562 58.097656 99.007812 57.859375 99.203125 Z M 156.195312 78.289062 C 155.398438 78.691406 154.535156 78.960938 153.71875 79.328125 C 146.359375 82.640625 136.910156 73.351562 132.308594 69.960938 C 117.957031 59.394531 96.050781 66.066406 83.867188 76.570312 C 81.679688 78.453125 79.585938 80.4375 77.382812 82.304688 C 74.878906 84.425781 72.359375 86.523438 69.949219 88.753906 C 68.667969 89.9375 67.140625 89.421875 65.792969 88.734375 C 60.773438 86.167969 55.582031 85.835938 50.320312 87.707031 C 48.054688 88.515625 46.238281 90.125 44.339844 91.644531 C 42.964844 92.746094 41.925781 94.160156 41.1875 95.746094 C 40.683594 96.835938 39.71875 99.167969 40.496094 100.292969 C 41.527344 101.78125 42.3125 102.074219 43.980469 102.320312 C 45.21875 102.503906 47.34375 102 47.398438 103.550781 C 47.457031 105.351562 47.863281 106.910156 49.429688 108.21875 C 50.640625 109.234375 49.144531 109.410156 48.46875 109.71875 C 52.398438 111.960938 56.570312 111.042969 60.679688 110.566406 C 63.871094 110.195312 66.777344 108.703125 69.992188 108.207031 C 73.566406 107.660156 76.828125 108.300781 80.035156 109.582031 C 88.46875 112.949219 92.445312 117.03125 101.226562 119.757812 C 116.609375 124.542969 135.96875 125.148438 147.664062 113.976562 C 155.972656 106.039062 155.667969 96.136719 157.113281 85.453125 C 157.398438 83.355469 157.347656 81.214844 157.527344 79.101562 C 157.636719 77.8125 157.148438 77.8125 156.195312 78.289062 " fill-opacity="1" fill-rule="nonzero"/></g><path fill="#e5dc9c" d="M 141.328125 91.71875 L 140.78125 92 L 140.214844 92.242188 L 139.640625 92.449219 L 139.054688 92.621094 C 138.273438 92.820312 137.472656 92.914062 136.6875 92.910156 C 135.898438 92.898438 135.121094 92.785156 134.390625 92.5625 C 134.097656 92.472656 133.75 92.546875 133.523438 92.8125 C 133.273438 93.105469 133.285156 93.542969 133.519531 93.851562 L 133.558594 93.902344 C 133.984375 94.464844 134.421875 95.015625 134.851562 95.570312 C 135.097656 95.886719 135.34375 96.199219 135.589844 96.507812 C 133.625 98.507812 131.191406 100.027344 128.554688 100.9375 C 127.835938 101.199219 127.097656 101.386719 126.351562 101.546875 L 125.789062 101.65625 C 125.601562 101.691406 125.414062 101.714844 125.226562 101.742188 C 124.851562 101.804688 124.46875 101.835938 124.085938 101.867188 C 123.316406 101.917969 122.542969 101.941406 121.761719 101.917969 C 120.980469 101.894531 120.191406 101.839844 119.402344 101.757812 C 117.820312 101.589844 116.222656 101.359375 114.679688 101.027344 C 113.128906 100.695312 111.617188 100.242188 110.191406 99.601562 C 108.769531 98.960938 107.429688 98.125 106.269531 97.050781 C 105.695312 96.511719 105.15625 95.925781 104.6875 95.277344 C 104.683594 95.269531 104.679688 95.261719 104.675781 95.253906 C 104.492188 94.996094 104.085938 95.21875 104.21875 95.507812 C 104.574219 96.28125 105.027344 97.015625 105.558594 97.691406 C 106.609375 99.03125 107.953125 100.15625 109.4375 101.023438 C 110.917969 101.902344 112.527344 102.542969 114.15625 103.023438 C 114.96875 103.265625 115.796875 103.460938 116.617188 103.640625 C 117.441406 103.820312 118.269531 103.960938 119.109375 104.085938 C 119.949219 104.210938 120.800781 104.296875 121.65625 104.34375 C 122.515625 104.390625 123.386719 104.398438 124.257812 104.339844 C 124.695312 104.308594 125.128906 104.277344 125.566406 104.210938 C 125.785156 104.175781 126.003906 104.152344 126.21875 104.113281 L 126.867188 103.992188 C 127.726562 103.800781 128.574219 103.574219 129.398438 103.269531 C 132.691406 102.078125 135.636719 99.964844 137.746094 97.214844 L 137.792969 97.148438 C 138.078125 96.78125 138.058594 96.253906 137.730469 95.902344 C 137.234375 95.371094 136.742188 94.832031 136.234375 94.304688 C 136.414062 94.292969 136.589844 94.28125 136.765625 94.257812 C 137.679688 94.152344 138.558594 93.902344 139.382812 93.550781 L 139.992188 93.265625 L 140.570312 92.9375 L 141.121094 92.566406 L 141.644531 92.160156 C 141.652344 92.152344 141.660156 92.148438 141.667969 92.140625 C 141.921875 91.929688 141.636719 91.542969 141.351562 91.703125 C 141.34375 91.707031 141.335938 91.714844 141.328125 91.71875 " fill-opacity="1" fill-rule="nonzero"/><g fill="#e39529" fill-opacity="1"><g transform="translate(44.187948, 152.947271)"><g><path d="M 32.296875 18.578125 L 28.5625 23.703125 L 0.75 3.453125 L 4.484375 -1.671875 Z M 44.96875 -1.828125 L 41.703125 2.65625 L 16.5 -15.6875 L 19.765625 -20.171875 Z M 37.265625 7.09375 L 34 11.578125 L 10.71875 -5.359375 L 13.984375 -9.84375 Z M 37.265625 7.09375 "/></g></g></g><g fill="#e39529" fill-opacity="1"><g transform="translate(90.275363, 180.844932)"><g><path d="M 0.15625 1.359375 C 0.875 -1.992188 1.476562 -5.425781 1.96875 -8.9375 C 2.46875 -12.457031 2.820312 -15.863281 3.03125 -19.15625 L 1.796875 -19.15625 L 1.796875 -24.15625 L 5.0625 -24.15625 L 5.0625 -29.265625 L 12.375 -29.265625 L 12.375 -24.15625 L 14.8125 -24.15625 L 14.8125 -19.15625 L 11.890625 -19.15625 L 11.890625 -17.125 L 13.96875 -17.609375 C 14.257812 -16.484375 14.535156 -15.410156 14.796875 -14.390625 C 15.066406 -13.367188 15.3125 -12.296875 15.53125 -11.171875 C 17.34375 -13.117188 18.816406 -15.078125 19.953125 -17.046875 C 21.097656 -19.015625 22.070312 -21.09375 22.875 -23.28125 L 15.609375 -23.28125 L 15.609375 -28.625 L 38.609375 -28.625 L 38.609375 -23.28125 L 30.015625 -23.28125 C 29.703125 -22.238281 29.351562 -21.203125 28.96875 -20.171875 C 28.582031 -19.148438 28.148438 -18.132812 27.671875 -17.125 L 29.734375 -17.125 L 29.734375 -15.046875 L 34.21875 -17.453125 C 34.664062 -16.804688 35.140625 -16.101562 35.640625 -15.34375 C 36.148438 -14.59375 36.648438 -13.789062 37.140625 -12.9375 C 37.640625 -12.082031 38.117188 -11.210938 38.578125 -10.328125 C 39.046875 -9.453125 39.476562 -8.578125 39.875 -7.703125 L 34.8125 -4.59375 C 34.09375 -6.238281 33.28125 -7.875 32.375 -9.5 C 31.46875 -11.125 30.585938 -12.601562 29.734375 -13.9375 L 29.734375 3.390625 L 22.640625 3.390625 L 22.640625 -8.859375 C 21.441406 -7.316406 20.070312 -5.785156 18.53125 -4.265625 L 14.40625 -8.34375 L 13.015625 -7.984375 C 12.859375 -9.046875 12.6875 -10.0625 12.5 -11.03125 C 12.3125 -12.007812 12.109375 -13.003906 11.890625 -14.015625 L 11.890625 3.46875 L 5.75 3.46875 L 5.75 -14.40625 C 5.644531 -13.082031 5.523438 -11.703125 5.390625 -10.265625 C 5.253906 -8.828125 5.097656 -7.378906 4.921875 -5.921875 C 4.753906 -4.472656 4.5625 -3.039062 4.34375 -1.625 C 4.132812 -0.21875 3.898438 1.117188 3.640625 2.390625 Z M 0.15625 1.359375 "/></g></g></g><g fill="#e39529" fill-opacity="1"><g transform="translate(143.456475, 176.439105)"><g><path d="M 7.640625 -41.421875 L 8.75 -39.90625 L 13.671875 -43.484375 L 20.234375 -34.46875 L 10.90625 -27.6875 L 11.609375 -26.71875 L 21.390625 -33.828125 L 23.296875 -31.21875 L 13.515625 -24.109375 L 14.1875 -23.171875 L 23.96875 -30.28125 L 32.09375 -19.109375 L 26.578125 -15.09375 L 26.203125 -15.609375 L 25.265625 -14.921875 C 24.378906 -16.066406 23.46875 -17.191406 22.53125 -18.296875 C 21.59375 -19.410156 20.660156 -20.4375 19.734375 -21.375 L 21.765625 -22.859375 C 22.390625 -22.253906 23.015625 -21.597656 23.640625 -20.890625 C 24.265625 -20.179688 24.878906 -19.453125 25.484375 -18.703125 L 25.96875 -19.046875 L 22.0625 -24.4375 L 11.796875 -16.96875 L -0.171875 -33.40625 L 3.734375 -36.25 L 2.625 -37.765625 Z M -1.796875 -33.046875 L 11.109375 -15.3125 L 6.75 -12.140625 L 12.09375 -4.8125 L 8.296875 -2.046875 L 2.953125 -9.375 L -1.5 -6.125 L -14.40625 -23.859375 Z M 16.71875 -8.5625 C 16.039062 -9.6875 15.269531 -10.847656 14.40625 -12.046875 C 13.550781 -13.242188 12.632812 -14.394531 11.65625 -15.5 L 13.921875 -17.140625 C 14.785156 -16.117188 15.695312 -14.992188 16.65625 -13.765625 C 17.613281 -12.535156 18.46875 -11.40625 19.21875 -10.375 Z M 16.484375 -19 C 17.460938 -17.976562 18.394531 -16.898438 19.28125 -15.765625 C 20.175781 -14.628906 21.039062 -13.53125 21.875 -12.46875 L 19.71875 -10.890625 C 18.925781 -12.066406 18.070312 -13.222656 17.15625 -14.359375 C 16.238281 -15.503906 15.34375 -16.566406 14.46875 -17.546875 Z M 19.109375 -20.921875 C 19.523438 -20.503906 19.972656 -20.023438 20.453125 -19.484375 C 20.929688 -18.953125 21.414062 -18.394531 21.90625 -17.8125 C 22.394531 -17.226562 22.875 -16.648438 23.34375 -16.078125 C 23.820312 -15.515625 24.269531 -14.988281 24.6875 -14.5 L 22.578125 -12.984375 C 21.753906 -14.035156 20.875 -15.15625 19.9375 -16.34375 C 19.007812 -17.539062 18.078125 -18.59375 17.140625 -19.5 Z M 6.875 -33.21875 L 11.71875 -36.734375 L 11.078125 -37.625 L 6.234375 -34.109375 Z M 13.84375 -33.828125 L 13.203125 -34.6875 L 8.359375 -31.171875 L 9 -30.3125 Z M -1.71875 -12.875 L -0.328125 -13.890625 L -2.453125 -16.796875 L -3.84375 -15.78125 Z M -6.59375 -19.5625 L -5.203125 -20.578125 L -7.1875 -23.3125 L -8.578125 -22.296875 Z M 4.78125 -17.609375 L 2.65625 -20.515625 L 1.34375 -19.5625 L 3.46875 -16.65625 Z M -3.390625 -26.078125 L -1.40625 -23.34375 L -0.09375 -24.296875 L -2.078125 -27.03125 Z M -3.390625 -26.078125 "/></g></g></g></svg>