<svg width="1007" height="84" viewBox="0 0 1007 84" fill="none" xmlns="http://www.w3.org/2000/svg">
<path d="M91.16 22.72L90.64 26.776H97.504V43.104H40.72V26.776H47.376L46.648 22.72H42.072V5.87199H57.776V2.54399H79.408V5.87199H96.152V22.72H91.16ZM41.968 19.08C38.5013 28.856 36.0053 35.4427 34.48 38.84C39.056 45.912 41.344 52.2213 41.344 57.768C41.344 64.0773 39.7147 68.9307 36.456 72.328C33.2667 75.656 28.864 77.2507 23.248 77.112C22.3467 70.5947 20.9947 65.3947 19.192 61.512V81.584H0.0560001V3.896H36.768L41.968 19.08ZM19.192 21.472V33.848C21.4107 29.1333 22.5893 25.008 22.728 21.472H19.192ZM72.648 22.72H65.472L65.888 26.776H72.232L72.648 22.72ZM19.192 57.768C20.1627 57.4213 20.9253 56.832 21.48 56C22.104 55.0987 22.416 54.0587 22.416 52.88C22.416 50.592 21.3413 47.888 19.192 44.768V57.768ZM42.384 45.808H94.904V82H74.624V80.96H62.664V82H42.384V45.808ZM74.624 65.256V59.848H62.664V65.256H74.624ZM227.92 50.592V70.456H204.728V82H182.576V70.456H159.384V50.592H182.576V47.68H159.904V28.024H163.232C162.608 21.992 161.637 16.376 160.32 11.176C159.765 21.992 158.725 30.104 157.2 35.512V82.312H134.216V59.64C133.107 60.1947 131.859 60.6453 130.472 60.992C129.987 54.8907 129.397 49.9333 128.704 46.12C128.08 42.3067 126.797 38.1467 124.856 33.64C127.837 33.64 130.16 33.2587 131.824 32.496C133.557 31.664 134.736 30.6587 135.36 29.48C135.984 28.232 136.296 24.5573 136.296 18.456C136.296 13.6027 136.088 8.57599 135.672 3.376L160.632 3.47999L160.424 7.952L178.936 4.41599C179.976 10.032 180.773 16.7573 181.328 24.592L167.808 28.024H182.576V2.95999H204.728V28.024H219.496L205.872 24.592C206.427 17.1733 207.293 10.448 208.472 4.41599L227.608 8.16C226.499 12.736 225.355 19.3573 224.176 28.024H227.296V47.68H204.728V50.592H227.92ZM357.4 23.76V41.544H353.656V82.416H332.648V41.544H329.216C328.592 49.864 327.24 56.6587 325.16 61.928C323.149 67.1973 320.064 71.5653 315.904 75.032C311.813 78.4293 306.163 81.3067 298.952 83.664C296.179 79.7813 293.613 76.5573 291.256 73.992C288.968 71.3573 285.987 68.7573 282.312 66.192C287.512 65.36 291.811 64.216 295.208 62.76C298.675 61.304 301.448 59.432 303.528 57.144H281.792C281.723 63.176 281.445 67.96 280.96 71.496C280.544 74.9627 279.677 78.5333 278.36 82.208C275.171 81.0293 271.565 79.9547 267.544 78.984C263.523 77.944 259.571 77.1467 255.688 76.592C257.699 72.9867 259.051 68.8613 259.744 64.216C260.437 59.5013 260.784 52.1867 260.784 42.272V22.928H306.336V53.192C307.792 50.488 308.763 47.3333 309.248 43.728C309.803 40.0533 310.08 35.5813 310.08 30.312C310.08 26.8453 310.045 24.176 309.976 22.304L309.664 4.624L356.152 2.44L356.048 7.12V19.912L329.84 21.264V23.76H357.4ZM259.744 3.376H306.752V20.328H259.744V3.376ZM291.256 41.752V37.488H281.896V41.752H291.256ZM487.192 21.16H440.288L438.416 23.448H483.552V66.712C483.552 71.5653 483.067 75.032 482.096 77.112C481.195 79.192 479.461 80.544 476.896 81.168C474.4 81.792 470.171 82.104 464.208 82.104L449.752 82C448.781 79.2267 447.672 76.8693 446.424 74.928C445.245 72.9173 443.269 70.1093 440.496 66.504C446.043 66.7813 450.515 66.92 453.912 66.92C456.685 66.92 458.453 66.816 459.216 66.608C459.979 66.4 460.36 66.0187 460.36 65.464V64.008H425.416V82.312H401.808V53.608C400.075 54.648 397.44 56.1733 393.904 58.184C392.725 53.608 391.547 49.76 390.368 46.64C389.259 43.4507 387.629 40.1227 385.48 36.656C389.571 35.408 393.904 33.5013 398.48 30.936C403.056 28.3707 407.389 25.112 411.48 21.16H390.472V5.56H422.92C423.475 4.58933 424.029 3.41066 424.584 2.02399H452.664L450.792 5.56H487.192V21.16ZM425.416 39.568H460.36V36.864H425.416V39.568ZM425.416 50.384V53.088H460.36V50.384H425.416ZM618.44 48.72C615.389 55.584 613.483 61.0613 612.72 65.152H616.152V78.672H579.44V82H556.56V78.672H519.848V65.152H523.28C522.517 61.0613 520.611 55.584 517.56 48.72C525.88 47.8187 533.056 46.1893 539.088 43.832H519.224V33.12H521.304L519.952 6.496C521.131 6.21866 522.24 5.976 523.28 5.768C524.389 5.49066 525.395 5.248 526.296 5.04C533.853 3.30666 538.984 1.92 541.688 0.879997L548.864 5.768V1.60799H566.024V2.856H585.68V13.256H566.024V15.024H585.888V33.12H595.976V31.456H588.28V23.24H596.392L596.496 21.888H588.28V13.776H596.912L597.016 12.32H588.28V3.376H616.36L614.8 33.12H616.776V43.832H596.912C602.944 46.1893 610.12 47.8187 618.44 48.72ZM540.232 31.456V33.12H548.864V26.048H566.024V33.12H568.312V24.176H548.864V9.616C547.408 9.96266 544.184 10.6213 539.192 11.592L539.296 13.776H546.68V21.888H539.712V23.24H546.68V31.456H540.232ZM563.944 43.832C562.904 44.664 561.76 45.496 560.512 46.328H575.488C574.24 45.496 573.096 44.664 572.056 43.832H563.944ZM556.56 51.528V49.032L552.712 51.528H556.56ZM583.288 51.528L579.44 49.032V51.528H583.288ZM556.56 65.152V63.696H536.488V60.368C533.507 61.824 529.867 63.4187 525.568 65.152H556.56ZM579.44 63.696V65.152H610.432C606.133 63.4187 602.493 61.824 599.512 60.368V63.696H579.44ZM749.792 44.976C747.781 49.4827 746.117 53.608 744.8 57.352C743.483 61.0267 742.443 64.9787 741.68 69.208C735.648 59.848 731.003 52.984 727.744 48.616V82.52H706.112V52.152C700.912 59.3627 695.747 65.3947 690.616 70.248C689.507 64.216 688.467 59.536 687.496 56.208L685.728 60.056L683.856 53.4L682.816 49.76V82.624H660.456V58.184C658.237 64.424 655.429 69.9013 652.032 74.616C650.853 63.5227 648.739 53.8853 645.688 45.704C648.531 44.1787 651.096 42.4107 653.384 40.4C655.741 38.3893 658.099 35.9627 660.456 33.12V32.6H650.784V12.008H660.456V2.752H682.816V12.008H689.056V3.584H745.736V23.24H729.616C738.421 31.4213 745.147 38.6667 749.792 44.976ZM689.784 39.36C696.093 34.0907 701.12 28.7173 704.864 23.24H689.992V32.6H682.816V33.12L686.56 36.448L689.784 39.36ZM878.336 35.72H873.24V37.696H876.152V53.192H873.24V67.752C873.24 72.12 872.581 75.2053 871.264 77.008C869.947 78.7413 867.312 79.8853 863.36 80.44C859.408 80.9947 852.544 81.272 842.768 81.272C842.629 77.2507 842.352 74.2693 841.936 72.328L835.488 77.424C832.507 73.7493 829.733 70.6293 827.168 68.064C824.672 65.4293 821.899 63.0373 818.848 60.888V76.904H798.568V80.128H780.16V4.93599H818.848V22.512H837.048V20.64H821.136V5.45599H837.048V2.752H858.472V5.45599H875.944V20.64H858.472V22.512H878.336V35.72ZM802.416 33.432V22.096H798.568V33.432H802.416ZM820.408 37.696H852.128V35.72H818.848V60.264L828.208 53.192H820.408V37.696ZM798.568 47.368V59.224H802.416V47.368H798.568ZM852.128 53.192H835.488C838.885 55.9653 842.283 59.3973 845.68 63.488C847.483 63.6267 848.592 63.696 849.008 63.696C850.325 63.696 851.157 63.5227 851.504 63.176C851.92 62.8293 852.128 62.2053 852.128 61.304V53.192ZM913.592 61.72C911.443 55.2027 909.501 49.5173 907.768 44.664C912.76 44.5253 917.163 44.04 920.976 43.208C917.44 40.4347 913.869 37.8347 910.264 35.408C912.205 32.08 913.8 27.9893 915.048 23.136H908.288V5.768H925.656V1.92H948.432V5.768H965.904V23.136H960.912C961.467 24.9387 962.125 26.6373 962.888 28.232C963.651 29.8267 964.691 31.8373 966.008 34.264C958.589 42.792 950.581 49.24 941.984 53.608C933.456 57.976 923.992 60.68 913.592 61.72ZM1006.05 66.712C1006.05 71.912 1005.53 75.4133 1004.49 77.216C1003.52 78.9493 1000.88 80.128 996.584 80.752C992.285 81.376 984 81.792 971.728 82C971.936 78.8107 971.52 75.344 970.48 71.6C969.44 67.856 967.637 64.32 965.072 60.992C971.797 61.408 976.893 61.616 980.36 61.616C983.203 61.616 985.213 61.4773 986.392 61.2C987.64 60.9227 988.264 60.472 988.264 59.848V3.792H1006.05V66.712ZM967.776 5.144H985.56V58.288H967.776V5.144ZM918.896 23.136L920.768 24.696C921.877 25.528 922.987 26.4293 924.096 27.4C927.077 25.32 929.053 23.8987 930.024 23.136H918.896ZM936.264 37.592C942.435 34.264 948.883 29.4453 955.608 23.136H946.04L948.432 25.84L945.416 28.336C942.851 30.4853 940.875 32.08 939.488 33.12C938.171 34.16 936.576 35.2347 934.704 36.344L936.264 37.592ZM967.256 57.976C965.037 60.4027 962.784 62.656 960.496 64.736L967.464 66.296C965.8 69.2773 964.205 72.224 962.68 75.136C961.155 78.048 959.941 80.6827 959.04 83.04C954.88 80.4747 950.72 77.632 946.56 74.512C937.2 79.5733 925.829 82.52 912.448 83.352C911.824 79.2613 911.165 75.8293 910.472 73.056C909.848 70.2827 908.739 67.1973 907.144 63.8C915.256 63.8 922.432 62.968 928.672 61.304C934.912 59.64 940.701 57.1787 946.04 53.92C951.379 50.592 957.029 46.224 962.992 40.816C963.755 47.264 965.176 52.984 967.256 57.976Z" fill="#FFCC70" fill-opacity="1"/>
</svg>
